<svg width="62" height="32" viewBox="0 0 62 32" fill="none" xmlns="http://www.w3.org/2000/svg">
<path fill-rule="evenodd" clip-rule="evenodd" d="M46 32C54.8366 32 62 24.8366 62 16C62 7.16344 54.8366 0 46 0L16 0C7.16344 0 0 7.16344 0 16C0 24.8366 7.16344 32 16 32L46 32ZM15.293 16.7132C15.11 16.5214 15 16.2666 15 15.9998C15.003 15.735 15.106 15.4752 15.293 15.2864L25.192 5.29527C25.582 4.90158 26.215 4.90158 26.606 5.29527C26.996 5.68895 26.997 6.32845 26.606 6.72214L18.414 14.9906L46 14.9906C46.552 14.9906 47 15.4423 47 15.9998C47 16.5574 46.552 17.009 46 17.009L18.413 17.009L26.606 25.2775C26.997 25.6712 26.997 26.3107 26.606 26.7044C26.216 27.098 25.583 27.099 25.192 26.7044L15.293 16.7132Z" fill="white"/>
<path fill-rule="evenodd" clip-rule="evenodd" d="M15 15.9998C15 16.2666 15.11 16.5214 15.293 16.7132L25.192 26.7044C25.583 27.099 26.216 27.098 26.606 26.7044C26.997 26.3107 26.997 25.6712 26.606 25.2775L18.413 17.009L46 17.009C46.552 17.009 47 16.5574 47 15.9998C47 15.4423 46.552 14.9906 46 14.9906L18.414 14.9906L26.606 6.72214C26.997 6.32845 26.996 5.68895 26.606 5.29527C26.215 4.90158 25.582 4.90158 25.192 5.29527L15.293 15.2864C15.106 15.4752 15.003 15.735 15 15.9998Z" fill="#0AA373"/>
</svg>
