<svg width="30" height="39" viewBox="0 0 30 39" fill="none" xmlns="http://www.w3.org/2000/svg">
<path fill-rule="evenodd" clip-rule="evenodd" d="M0 6.28272C0 2.81287 2.81286 0 6.28272 0H16.4252C18.0915 0 19.6895 0.661926 20.8677 1.84017L28.1598 9.13228C29.3381 10.3105 30 11.9085 30 13.5748V32.6702C30 36.14 27.1871 38.9529 23.7173 38.9529H6.28272C2.81286 38.9529 0 36.14 0 32.6702V6.28272ZM6.28272 3.14136C4.5478 3.14136 3.14136 4.54779 3.14136 6.28272V32.6702C3.14136 34.4051 4.5478 35.8115 6.28272 35.8115H23.7173C25.4522 35.8115 26.8586 34.4051 26.8586 32.6702V13.5748C26.8586 12.8627 26.8586 11.623 25.3934 11.623H19.6335C18.766 11.623 18.0628 10.9198 18.0628 10.0524V4.5444C18.0628 3.53403 17.0078 3.14136 16.4252 3.14136H6.28272ZM14.1495 18.0628H15.8406C16.1808 18.0628 16.461 18.3433 16.461 18.6839V21.1883C16.461 21.5289 16.7413 21.8093 17.0814 21.8093H18.1421C18.6725 21.8093 18.9626 22.4104 18.6425 22.8211L15.4403 26.8281C15.1902 27.1485 14.6998 27.1485 14.4497 26.8281L11.3376 22.8211C11.0173 22.4104 11.3075 21.8093 11.8279 21.8093H12.9086C13.2488 21.8093 13.529 21.5289 13.529 21.1883V18.6839C13.529 18.3433 13.8092 18.0628 14.1495 18.0628ZM20.6038 30.3141H9.39624C9.05601 30.3141 8.79584 30.0437 8.79584 29.7131V28.511C8.79584 28.1804 9.06602 27.91 9.39624 27.91H20.6038C20.934 27.91 21.2042 28.1804 21.2042 28.511V29.7131C21.2042 30.0437 20.934 30.3141 20.6038 30.3141Z" fill="#C4C4C4"/>
</svg>
