<svg width="1920" height="850" viewBox="0 0 1920 850" fill="none" xmlns="http://www.w3.org/2000/svg">
<g clip-path="url(#clip0)">
<rect width="1920" height="850" fill="url(#paint0_linear)"/>
<path d="M1621.5 173C1443.1 152.6 1315 53 1260 -39L-204 -72V887L1954.5 921V242.5C1917.83 227.833 1799.9 193.4 1621.5 173Z" fill="url(#paint1_linear)"/>
<g filter="url(#filter0_f)">
<path d="M1054 126C990 108.4 894 29.3333 854 -8L-120 -34V924L2040 974L2024 438C1872 342 1614.18 285.554 1506 274C1300 252 1134 148 1054 126Z" fill="url(#paint2_linear)"/>
</g>
<path d="M1080 123.5C1007 68.5 970.5 13.5 934 -34H-120V924L2040 974L2024 438C1872 342 1614.18 285.554 1506 274C1300 252 1146.27 173.427 1080 123.5Z" fill="url(#paint3_linear)"/>
<path d="M936.5 128C838.5 98.4 727.167 4.33333 692.5 -40H-41V884.5H1955V485C1898 515.5 1733.3 536.4 1594.5 500C1421 454.5 1349 372 1252 294.5C1149.4 212.529 1059 165 936.5 128Z" fill="url(#paint4_linear)"/>
<g filter="url(#filter1_f)">
<path d="M-98 858V45C44.9998 91.5 102.551 228.966 277 291C509 373.5 583.333 394.833 707 438C830.667 481.167 1029.3 601.7 1116.5 698.5C1203.7 795.3 1510.67 875.167 1633 896L-98 858Z" fill="url(#paint5_linear)"/>
</g>
<path d="M-98 858V45C-2 142.5 102.551 228.966 277 291C509 373.5 541 380.057 707 438C873 495.943 1021.34 609.516 1116.5 698.5C1232 806.5 1407 891.039 1633 896L-98 858Z" fill="url(#paint6_linear)"/>
</g>
<defs>
<filter id="filter0_f" x="-200" y="-114" width="2320" height="1168" filterUnits="userSpaceOnUse" color-interpolation-filters="sRGB">
<feFlood flood-opacity="0" result="BackgroundImageFix"/>
<feBlend mode="normal" in="SourceGraphic" in2="BackgroundImageFix" result="shape"/>
<feGaussianBlur stdDeviation="40" result="effect1_foregroundBlur"/>
</filter>
<filter id="filter1_f" x="-178" y="-35" width="1891" height="1011" filterUnits="userSpaceOnUse" color-interpolation-filters="sRGB">
<feFlood flood-opacity="0" result="BackgroundImageFix"/>
<feBlend mode="normal" in="SourceGraphic" in2="BackgroundImageFix" result="shape"/>
<feGaussianBlur stdDeviation="40" result="effect1_foregroundBlur"/>
</filter>
<linearGradient id="paint0_linear" x1="1747.5" y1="-8.33703e-06" x2="1245.5" y2="850" gradientUnits="userSpaceOnUse">
<stop stop-color="#4DE8E8"/>
<stop offset="1" stop-color="#2522A8"/>
</linearGradient>
<linearGradient id="paint1_linear" x1="2041.5" y1="-170" x2="1442" y2="622.5" gradientUnits="userSpaceOnUse">
<stop stop-color="#B3E7E8"/>
<stop offset="1" stop-color="white"/>
</linearGradient>
<linearGradient id="paint2_linear" x1="995.5" y1="470" x2="1843.5" y2="586.5" gradientUnits="userSpaceOnUse">
<stop stop-color="#FB51CD"/>
<stop offset="1" stop-color="#FB6551"/>
</linearGradient>
<linearGradient id="paint3_linear" x1="1216.5" y1="380" x2="1843.5" y2="586.5" gradientUnits="userSpaceOnUse">
<stop stop-color="#FB51CD" stop-opacity="0"/>
<stop offset="1" stop-color="#FB6551"/>
</linearGradient>
<linearGradient id="paint4_linear" x1="1924.5" y1="-41.9999" x2="913.501" y2="892.5" gradientUnits="userSpaceOnUse">
<stop stop-color="#F15E4E"/>
<stop offset="1" stop-color="#C76C9D"/>
</linearGradient>
<linearGradient id="paint5_linear" x1="582.5" y1="439" x2="409.5" y2="844.5" gradientUnits="userSpaceOnUse">
<stop stop-color="#ED2F48"/>
<stop offset="1" stop-color="#7B22B1"/>
</linearGradient>
<linearGradient id="paint6_linear" x1="881" y1="471" x2="236" y2="317.5" gradientUnits="userSpaceOnUse">
<stop stop-color="#ED2F48"/>
<stop offset="1" stop-color="#7B22B1" stop-opacity="0"/>
</linearGradient>
<clipPath id="clip0">
<rect width="1920" height="850" fill="white"/>
</clipPath>
</defs>
</svg>
