<svg width="842" height="483" viewBox="0 0 842 483" fill="none" xmlns="http://www.w3.org/2000/svg">
<path opacity="0.91" d="M648.7 127.2C624.1 70.8 572 29.1 509.3 19.2C499.9 17.7 490.2 16.9 480.3 16.9C470.3 16.9 460.4 17.7 450.8 19.3C387.9 29.4 335.7 71.5 311.4 128.3C301.9 150.5 296.6 174.9 296.6 200.6C296.6 226.4 301.9 250.9 311.5 273.1C331.2 318.9 368.9 355 415.8 372.6C435.9 380.1 457.6 384.3 480.3 384.3C503 384.3 524.7 380.2 544.8 372.7C591.2 355.3 628.7 319.6 648.6 274.4C658.5 251.8 664 226.9 664 200.7C663.9 174.5 658.5 149.7 648.7 127.2ZM512.5 271C511.7 306 500.3 333.1 480 350.4C459.7 333 448.3 305.9 447.6 270.8C447.6 269.7 447.7 268.5 447.7 267.3V119.6C447.7 118.4 447.7 117.2 447.6 116.1C448.3 80.7 459.7 53.3 480 35.8C500.3 53.3 511.7 80.7 512.5 115.9C512.4 117.1 512.4 118.3 512.4 119.6V267.3C512.4 268.6 512.5 269.8 512.5 271Z" fill="#FF5F5F"/>
<path d="M512.5 116C512.4 117.2 512.4 118.4 512.4 119.7V267.4C512.4 268.6 512.4 269.8 512.5 271C512.5 269.8 512.5 268.6 512.5 267.4V119.6C512.5 118.4 512.5 117.2 512.5 116ZM447.6 270.9C446.6 296.6 434.2 309.8 411.7 309.8C388.2 309.8 376.3 295.3 376.3 267.4V119.6C376.3 91.2 388.3 76.2 411.7 76.2C434.2 76.2 446.6 89.9 447.6 116.1C448.3 80.7 459.7 53.3 480 35.8C471.7 28.6 462 23.1 450.8 19.3C387.9 29.4 335.7 71.5 311.4 128.3V267.3C311.4 269.3 311.4 271.2 311.5 273.1C331.2 318.9 368.9 355 415.8 372.6C442.2 371.9 463.9 364.2 480.1 350.4C459.7 333.1 448.3 306 447.6 270.9Z" fill="#FFE169"/>
<path d="M450.8 19.3C387.9 29.4 335.7 71.5 311.4 128.3V119.6C311.4 52.7 348.8 13.3 411.7 13.3C426.2 13.3 439.2 15.4 450.8 19.3Z" fill="#686868"/>
<path d="M415.8 372.6C414.5 372.6 413.1 372.7 411.8 372.7C350.8 372.7 313.7 336 311.6 273.2C331.2 318.9 368.9 355.1 415.8 372.6Z" fill="#686868"/>
<path d="M509.3 19.2C498.1 23 488.3 28.5 480 35.7C500.3 53.2 511.7 80.6 512.5 115.8C513.5 89.8 525.4 76.1 547.9 76.1C571.4 76.1 583.8 91.1 583.8 119.5V267.2C583.8 295.1 571.3 309.6 547.9 309.6C525.5 309.6 513.5 296.4 512.5 270.8C511.7 305.8 500.3 332.9 480 350.2C496.2 364.1 518.1 371.8 544.7 372.4C591.1 355 628.6 319.3 648.5 274.1C648.6 271.8 648.6 269.5 648.6 267.1V127.2C624.1 70.8 571.9 29.2 509.3 19.2ZM447.5 119.6V267.3C447.5 268.5 447.5 269.6 447.5 270.8C447.5 269.7 447.6 268.5 447.6 267.3V119.6C447.6 118.4 447.6 117.2 447.5 116.1C447.6 117.3 447.5 118.5 447.5 119.6Z" fill="#4F93F6"/>
<path d="M512.4 119.6V267.3C512.4 268.5 512.4 269.7 512.5 270.9C511.7 305.9 500.3 333 480 350.3C459.7 332.9 448.3 305.8 447.6 270.7C447.6 269.6 447.7 268.4 447.7 267.2V119.6C447.7 118.4 447.7 117.2 447.6 116.1C448.3 80.7 459.7 53.3 480 35.8C500.3 53.3 511.7 80.7 512.5 115.9C512.5 117.2 512.4 118.4 512.4 119.6Z" fill="#FBBCFF"/>
<path d="M648.7 119.6V127.2C624.1 70.8 572 29.1 509.3 19.2C520.8 15.3 533.7 13.3 547.9 13.3C611.3 13.3 648.7 52.8 648.7 119.6Z" fill="#686868"/>
<path d="M648.5 274.4C645.9 336.5 608.9 372.7 547.8 372.7C546.8 372.7 545.7 372.7 544.7 372.7C591.2 355.2 628.7 319.6 648.5 274.4Z" fill="#686868"/>
<path d="M255.3 82.6V315H210.5V142.7L178.6 161V112.5L227 82.6H255.3Z" fill="#686868"/>
<path d="M691.4 289.1C691.4 215.4 774.4 182.2 774.4 143.4C774.4 133.4 769.1 123.1 756.1 123.1C744.2 123.1 736.8 131.7 736.2 147.3H693.7C695.7 103.1 717.9 80.6 755.4 80.6C799.5 80.6 819.1 111.8 819.1 141C819.1 200.4 738.8 239.9 738.8 275.1H820.1V317H691.4V289.1Z" fill="#686868"/>
<path d="M133.4 277.6H63.6L51.5 330.8H11.5L78 66.8H119.1L185.5 330.8H145.9L133.4 277.6ZM125.5 242.2L108.9 171.3C105.1 154 101 128.7 99.1 114.7H98C96.1 128.7 92.3 153.9 88.2 171.3L72 242.2H125.5Z" fill="#686868"/>
<path d="M179.1 436.9V461.3H148.9V436.9H154V456.6H161.4V436.9H166.5V456.6H173.9V436.9H179.1Z" fill="#686868"/>
<path d="M219.7 436.9L210.8 447.6L221.6 461.4H215.5L206.2 449.3V461.4H201V437H206.1V446.3L213.7 437H219.7V436.9Z" fill="#686868"/>
<path d="M254.1 436.9C261.5 436.9 266.6 442.5 266.6 449.1C266.6 456.3 261 461.3 254.1 461.3C246.7 461.3 241.6 455.8 241.6 449.1C241.7 442.2 247.1 436.9 254.1 436.9ZM254.1 456.7C258.6 456.7 261.2 453.2 261.2 449.1C261.2 444.6 258.1 441.5 254.1 441.5C249.6 441.5 246.9 445 246.9 449.1C247 453.2 249.8 456.7 254.1 456.7Z" fill="#686868"/>
<path d="M311 436.9V461.3H305.9V441.6H298.4V453.3C298.4 455.5 297.6 457.4 296.1 459C294.6 460.5 292.7 461.3 290.5 461.3C289.1 461.3 287.8 461 286.6 460.3L289.1 455.9C289.5 456.1 290 456.3 290.5 456.3C291.3 456.3 292 456 292.5 455.4C293.1 454.8 293.4 454.2 293.4 453.4V437H311V436.9Z" fill="#686868"/>
<path d="M346.3 436.9L356 461.3H351L349.5 457.6H338.1L336.6 461.3H331.6L341.3 436.9H346.3ZM339.9 453H347.6L343.7 442.8L339.9 453Z" fill="#686868"/>
<path d="M416 436.9L425.7 461.3H420.7L419.2 457.6H407.8L406.3 461.3H401.3L411 436.9H416ZM409.6 453H417.3L413.4 442.8L409.6 453Z" fill="#686868"/>
<path d="M467.4 436.9V461.3H462.3V450.3H451.3V461.3H446.2V436.9H451.3V445.6H462.3V436.9H467.4Z" fill="#686868"/>
<path d="M494.4 436.9V452.4L509.1 436.9H511.7V461.3H506.6V445.8L491.9 461.3H489.3V436.9H494.4Z" fill="#686868"/>
<path d="M560 436.9V461.3H554.9V446.1L546.8 455.4L538.7 446.1V461.3H533.6V436.9H536.2L546.9 449.1L557.6 436.9H560Z" fill="#686868"/>
<path d="M595.3 436.9L605 461.3H600L598.5 457.6H587.1L585.6 461.3H580.6L590.3 436.9H595.3ZM588.9 453H596.6L592.7 442.8L588.9 453Z" fill="#686868"/>
<path d="M645.7 436.9V456.6H649.3V466.3H644.2V461.3H624.6V436.9H629.7V456.6H640.6V436.9H645.7Z" fill="#686868"/>
<path d="M675.7 436.9V452.4L690.4 436.9H693V461.3H687.9V445.8L673.2 461.3H670.6V436.9H675.7Z" fill="#686868"/>
<path d="M719.9 436.9V452.4L734.6 436.9H737.2V461.3H732.1V445.8L717.4 461.3H714.8V436.9H719.9Z" fill="#686868"/>
</svg>
