<svg xmlns="http://www.w3.org/2000/svg" viewBox="0 0 2248.06 600"><defs><style>.cls-1{fill:#e94e1b;}.cls-2{fill:#1d1d1b;}</style></defs><g id="Layer_2" data-name="Layer 2"><g id="Layer_1-2" data-name="Layer 1"><path class="cls-1" d="M558.21,366.46a117.6,117.6,0,0,0-223.52,51.15c0,.53,0,1.07,0,1.6,0,3.06.19,6.07.46,9.05a68.64,68.64,0,0,0,122,34.56,45.07,45.07,0,0,1-3.23-89,44.42,44.42,0,0,1,8.61-.83,45.09,45.09,0,0,1,44.11,35.75.17.17,0,0,1,0,.07c0,.13.06.26.08.4.2,1,.36,1.93.48,2.9l0,.22a122.4,122.4,0,1,1-243.38,18.55c0-.41,0-.8,0-1.19a119.61,119.61,0,0,1,2.06-21.31,160.9,160.9,0,0,1-32.48,3.3q-2.62,0-5.25-.09A160.17,160.17,0,0,1,80.81,300a160.17,160.17,0,0,1,147.4-111.6q2.63-.09,5.25-.09a160.9,160.9,0,0,1,32.48,3.3,119.61,119.61,0,0,1-2.06-21.31c0-.39,0-.78,0-1.19a122.39,122.39,0,1,1,243.38,18.55l0,.22c-.12,1-.28,1.94-.48,2.9,0,.14-.05.27-.08.4a.17.17,0,0,1,0,.07A45.09,45.09,0,0,1,462.53,227a44.42,44.42,0,0,1-8.61-.83,45.07,45.07,0,0,1,3.23-89,68.64,68.64,0,0,0-122,34.55c-.27,3-.43,6-.46,9.06,0,.53,0,1.07,0,1.6a117.61,117.61,0,0,0,223.52,51.15,170.42,170.42,0,0,0,11.58-56.07c.07-2.07.11-4.13.11-6.21A171.27,171.27,0,0,0,228.13,155a166,166,0,0,0-47.26-6.81C93.89,148.16,7.37,214.91,0,300c7.37,85.09,93.89,151.84,180.87,151.84A166,166,0,0,0,228.13,445,171.27,171.27,0,0,0,569.9,428.74q0-3.12-.11-6.21A170.42,170.42,0,0,0,558.21,366.46Zm-34-139.38c1.83-2.45,6.6-.86,4.29,2.74-34.8,54.14-93.69,38.1-117.62,21.83-30.65-20.85-44.78-65.24-19.7-95.93,2.16-2.64,5.24-1.09,3.1,2.06-19.15,28.27-4,67.26,21.74,85.94C434.69,257.31,489.61,273.32,524.19,227.08Zm0,145.84c-34.58-46.24-89.5-30.23-108.19-16.64C390.28,375,375.11,414,394.26,442.22c2.14,3.15-.94,4.7-3.1,2.06-25.08-30.69-11-75.09,19.7-95.93,23.93-16.27,82.82-32.31,117.62,21.83C530.79,373.78,526,375.37,524.19,372.92Zm-179.46-87c-20.42-44.27-104.5-105.36-190,14.11,85.46,119.47,169.54,58.38,190,14.11,0,0-35.1,12-75.6,9.23S205.57,300,205.57,300s23.14-20.6,63.56-23.34S344.73,285.89,344.73,285.89Z"/><path class="cls-2" d="M686.37,29.23l48.73,98.82,43.25-98.82h22.91q-8.38,5.82-8.38,23.77v82.23q0,9.57,8.38,15.39h-35q8-6,9.06-14.19V67.7l-37.95,82.92H725.69l-41-82.24v66.85q0,9.41,8.21,15.39H665q8.37-5.82,8.38-15.39V53q0-18-8.38-23.77Z"/><path class="cls-2" d="M830.94,150.44c-1.26.12-2.51.18-3.77.18h-2.39q-10.42,0-11.28-9.07a12,12,0,0,1,3.42-8.2,12.55,12.55,0,0,1,8.72-3.42q6,0,8.71,3.59a3.91,3.91,0,0,0,2.91,1.54q3.24,0,9.4-5.47,7.53-6.84,15.39-19L822.39,44.79q-8.21-9.75-13.51-9.91V29.23h39.66v5.65q-7.17.16-7.18,5.64a10.82,10.82,0,0,0,1,4.1l28.89,49.24,22.23-49.24a9.53,9.53,0,0,0,.85-3.59q0-5.81-9.06-6.15V29.23h30.43v5.65q-3.76.34-11.11,9.91L881,96.08Q856.58,147.37,830.94,150.44Z"/><path class="cls-2" d="M973.45,60q0-8.55-3.59-13.18a18.35,18.35,0,0,0-15.39-7.71q-9.57,0-11.28,4.79c0,1.48,1.19,2.9,3.59,4.27q5.13,3.07,5.13,7.35,0,7.69-8.55,8.55-9.75-.68-10.09-11.28a17.12,17.12,0,0,1,3.42-10.77Q945.24,33,960.28,33q15.22,0,24.79,9.06a24.29,24.29,0,0,1,8,18.46q0,19.66-20.18,25.81,28,6,28,31.12,0,32.82-38,33.68-24.28-.84-32.83-16.24-5.12-10.26-5.12-17.44.51-13.17,11.79-13.16,9.75,0,9.75,9.4a15,15,0,0,1-5.13,11.62c-2.17,1.83-3.25,3.82-3.25,6q2.57,12.13,22.4,13,23.07-.51,23.07-24,0-28.42-34.19-28.77V84.18Q973.27,78,973.45,60Z"/><path class="cls-2" d="M1048.09,92.49v41.88q0,7,8,7h24.62q23.09,0,31-22.9v32.14h-93.86q12.64-6,12.65-15.39V44.62q0-9.4-12.65-15.39h88.38V61.37q-7.86-22.9-31.62-22.9h-26.5V83.26H1076q9.4,0,16.25-9.23v26.84q-6.84-8.39-16.25-8.38Z"/><path class="cls-2" d="M1142.9,150.62h-6.84v-106q0-9.57-9.23-15.39h37.1q-16.76,6-16.75,15.39v72l71.63-87.36h15.73q-8.38,5.82-8.38,23.77v82.23q0,9.57,8.38,15.39h-37.1q17.43-6,17.44-15.39V66.67ZM1160.85,1a2.07,2.07,0,0,1,2.05-1,2.59,2.59,0,0,1,1.89.68q.33,9.24,15.89,9.24,15.9,0,15.9-9.24a2.58,2.58,0,0,1,1.88-.68,2.08,2.08,0,0,1,2.06,1q-.18,19.65-19.84,19.66Q1160.85,20.69,1160.85,1Z"/><path class="cls-2" d="M1384.16,29.23V61.37q-7.7-22.9-23.08-22.9h-12.65v96.76q0,9.57,12.48,15.39h-42.57q12.48-5.82,12.48-15.39V38.47h-12.65q-15.39,0-23.08,22.9V29.23Z"/><path class="cls-2" d="M1423.93,93v42.23q0,9.41,13.33,15.39h-43.42q12.48-5.82,12.48-15.39V44.62q0-9.57-12.48-15.39h43.42q-13.34,5.81-13.33,15.39V83.77h26.49Q1452,60,1463.76,45.13q13.85-16.76,40.86-16.75,28.89,0,42.74,16.75Q1561,62.23,1561,91q0,27.36-13.85,44.28-13.68,16.76-41,16.75-28.38,0-42.23-16.75-13.34-16.06-13.85-42.23Zm82.23,51.46q16.58,0,25.47-14,9.06-14.2,9.06-39.55-.51-25.52-10.26-39.9-9.92-14.38-25.81-14.38-16.08,0-25.13,14.21-9.06,14-9.06,40.07.51,25,10.43,39.21Q1490.94,144.46,1506.16,144.46Z"/><path class="cls-2" d="M1607.3,96.59v30.26q0,17.79,13.09,23.77H1577q12.64-6,12.65-15.39V44.62q0-9.4-12.65-15.39h40.62q49.81.18,49.82,33.68-.18,33.51-49.78,33.68Zm0-60V82.06q0,7.35,8.37,7.35h3.42q28.38-1,28.38-26.5,0-25.63-28.38-26.32Z"/><path class="cls-2" d="M1712,88.9q12.3-5.3,18.29-32.83,6-27.69,33.85-27.69,10.26,0,16.07,6.32a16.74,16.74,0,0,1,3.42,10.78q-.35,11.12-10.09,11.11-8.55,0-8.54-8.38,0-4.62,5.12-7.35c2.4-1.6,3.59-3,3.59-4.27q-1.71-4.11-8.54-4.11H1764a4.58,4.58,0,0,0-1.37.17q-9.41.69-15,25.65t-22.74,30.26q27,5.47,33,29.06,7.53,28,23.26,33h-19.84q-19-.35-24.61-30.78Q1732,95.41,1718.52,95.4a32.22,32.22,0,0,0-10.25,1.71h-.17v38.12q0,9.41,13.33,15.39H1678q12.48-5.82,12.48-15.39V44.62q0-9.57-12.48-15.39h42.74q-12.66,6-12.65,15.39V88.9Z"/><path class="cls-2" d="M1819,90.61q0,23.76,10.09,38.29,10.08,14.21,25.64,14.19,16.41-.17,26-9.57,9.57-9.57,11.28-18.46h5.13q-2.56,13.5-13.85,25.13-10.93,11.28-32.65,11.62-23.43,0-38.13-15.9-15.21-16.75-15.21-45.3,0-28.89,15.9-45.48Q1829.07,28,1852.32,28q14.19,0,21.88,5.13c2,1.36,3.7,2,5,2q3.24,0,10.77-5.64V69.41q-9.4-15.21-15.56-24.28-6.15-8.88-20.34-8.89-14,0-24.62,15.39Q1819,66.68,1819,90.61Z"/><path class="cls-2" d="M1943.2,88.9q12.32-5.3,18.29-32.83,6-27.69,33.85-27.69,10.26,0,16.07,6.32a16.74,16.74,0,0,1,3.42,10.78q-.35,11.12-10.09,11.11-8.55,0-8.54-8.38,0-4.62,5.13-7.35,3.59-2.4,3.59-4.27-1.71-4.11-8.55-4.11h-1.2a4.63,4.63,0,0,0-1.37.17q-9.4.69-15,25.65T1956,88.56q27,5.47,33,29.06,7.51,28,23.25,33h-19.83q-19-.35-24.62-30.78-4.62-24.43-18.12-24.44a32.28,32.28,0,0,0-10.26,1.71h-.17v38.12q0,9.41,13.33,15.39h-43.42q12.48-5.82,12.48-15.39V44.62q0-9.57-12.48-15.39h42.74q-12.66,6-12.65,15.39V88.9Z"/><path class="cls-2" d="M2041.09,150.62h-6.84v-106q0-9.57-9.23-15.39h37.1q-16.76,6-16.75,15.39v72L2117,29.23h15.73q-8.39,5.82-8.38,23.77v82.23q0,9.57,8.38,15.39h-37.1q17.43-6,17.44-15.39V66.67Z"/><path class="cls-2" d="M2200,86.51l33,48.55a79,79,0,0,0,15,15.56h-41.21q7.18-6,7.18-11.29a9.91,9.91,0,0,0-1-4.1l-20.69-32.48L2171,135.23a7.25,7.25,0,0,0-.68,3.25q0,6.15,8.72,12.14h-38.64a54.41,54.41,0,0,0,19.49-15.56l27.87-41.54-33-48.73a61.34,61.34,0,0,0-14.36-15.56h40.52q-7.18,5.82-7.18,11.29a10.78,10.78,0,0,0,1,4.1l20.52,32.48,21.37-32.48a9.53,9.53,0,0,0,.85-3.59q0-6-6.66-11.8h37.27q-13,6-20.35,15.56Z"/><path class="cls-2" d="M686.37,239.31l48.73,98.81,43.25-98.81h22.91q-8.38,5.82-8.38,23.76V345.3q0,9.58,8.38,15.39h-35q8-6,9.06-14.19V277.78l-37.95,82.91H725.69l-41-82.23V345.3q0,9.4,8.21,15.39H665q8.37-5.81,8.38-15.39V263.07q0-17.94-8.38-23.76Z"/><path class="cls-2" d="M830.94,360.52c-1.26.11-2.51.17-3.77.17h-2.39q-10.42,0-11.28-9.06a12,12,0,0,1,3.42-8.21,12.59,12.59,0,0,1,8.72-3.42q6,0,8.71,3.6a3.93,3.93,0,0,0,2.91,1.53q3.24,0,9.4-5.47,7.53-6.82,15.39-19l-39.66-65.82q-8.21-9.75-13.51-9.92v-5.64h39.66V245q-7.17.18-7.18,5.64a10.9,10.9,0,0,0,1,4.11l28.89,49.23,22.23-49.23a9.57,9.57,0,0,0,.85-3.59q0-5.82-9.06-6.16v-5.64h30.43V245q-3.76.35-11.11,9.92L881,306.15Q856.58,357.45,830.94,360.52Z"/><path class="cls-2" d="M973.45,270.12q0-8.56-3.59-13.19a18.34,18.34,0,0,0-15.39-7.7q-9.57,0-11.28,4.78c0,1.48,1.19,2.91,3.59,4.28q5.13,3.07,5.13,7.35,0,7.69-8.55,8.55-9.75-.69-10.09-11.29a17.16,17.16,0,0,1,3.42-10.77q8.55-9.06,23.59-9.06,15.22,0,24.79,9.06a24.31,24.31,0,0,1,8,18.47q0,19.65-20.18,25.81,28,6,28,31.11,0,32.84-38,33.68-24.28-.82-32.83-16.24-5.12-10.26-5.12-17.44.51-13.15,11.79-13.16,9.75,0,9.75,9.4a15,15,0,0,1-5.13,11.63c-2.17,1.82-3.25,3.82-3.25,6q2.57,12.15,22.4,13,23.07-.53,23.07-24,0-28.42-34.19-28.77v-7.36Q973.27,288.09,973.45,270.12Z"/><path class="cls-2" d="M1056.81,293.33q49.74.18,49.92,33.68,0,33.51-49.92,33.68h-40.52q12.48-5.81,12.48-15.39V254.7q0-9.58-12.48-15.39h43.42q-13.34,5.82-13.33,23.76v30.26Zm1.36,60.18q28.56-1,28.56-26.5t-28.56-26.5h-11.79v53Zm89.25-8.21q0,9.4,13.16,15.39h-43.42q12.64-6,12.65-15.39V254.7q0-9.4-12.65-15.39h43.42q-13.17,6-13.16,15.39Z"/><path class="cls-2" d="M1210.09,299q12.32-5.3,18.29-32.82,6-27.69,33.85-27.7,10.26,0,16.07,6.33a16.7,16.7,0,0,1,3.42,10.77q-.35,11.11-10.09,11.11-8.54,0-8.54-8.37,0-4.62,5.13-7.36,3.58-2.38,3.59-4.27-1.71-4.09-8.55-4.1h-1.2a4.63,4.63,0,0,0-1.37.17q-9.4.69-15,25.64t-22.74,30.26q27,5.47,33,29.07,7.52,28,23.25,33h-19.83q-19-.35-24.62-30.77-4.62-24.45-18.12-24.45a32.28,32.28,0,0,0-10.26,1.71h-.17V345.3q0,9.4,13.33,15.39h-43.42q12.48-5.81,12.48-15.39V254.7q0-9.58-12.48-15.39h42.74q-12.66,6-12.65,15.39V299Z"/><path class="cls-2" d="M1315.85,322.57l-6,16.24a23.5,23.5,0,0,0-1,6.32q0,9.58,11.79,15.56h-35.39q5.31-5.81,11-19.32l38.63-102.06h11.11l39,102.06q5.64,13.51,10.94,19.32h-43.76q12.65-5.64,12.65-15.56a24.58,24.58,0,0,0-1-6.32l-5.29-16.24Zm3.59-9.23h35.38l-17.6-53Z"/><path class="cls-2" d="M1462.63,360.69q13.17-6,13.16-15.39V248.54h-39.32a153.63,153.63,0,0,1,2.57,28,166.27,166.27,0,0,1-7,46.84Q1420.57,361,1403.82,361h-1.54q-7.17-.86-7.18-8.37v-1.2q.86-8.55,11.63-8.55h.85q11.63,0,19.32-28.55a126.06,126.06,0,0,0,4.1-32.65,163.13,163.13,0,0,0-3.24-32q-2.57-4.44-11.29-10.43h89.41q-12.48,5.82-12.48,15.39v93q1.55,7.17,13,13Z"/><path class="cls-2" d="M1560.52,293.33q49.76.18,49.92,33.68,0,33.51-49.92,33.68H1520q12.46-5.81,12.48-15.39V254.7q0-9.58-12.48-15.39h43.42q-13.34,5.82-13.33,23.76v30.26Zm1.37,60.18q28.54-1,28.55-26.5t-28.55-26.5H1550.1v53Z"/><path class="cls-2" d="M1654.14,303.08V345.3q0,9.4,13.34,15.39h-43.43q12.48-5.81,12.48-15.39V254.7q0-9.58-12.48-15.39h43.43q-13.34,5.82-13.34,15.39v39.15h54.37V254.7q0-9.58-12.48-15.39h42.57q-13.33,5.82-13.34,15.39v90.6q0,9.4,13.34,15.39H1696q12.46-5.81,12.48-15.39V303.08Z"/><path class="cls-2" d="M1788.62,293.33q49.74.18,49.92,33.68,0,33.51-49.92,33.68H1748.1q12.48-5.81,12.48-15.39V254.7q0-9.58-12.48-15.39h43.42q-13.33,5.82-13.33,23.76v30.26Zm1.37,60.18q28.54-1,28.55-26.5T1790,300.51h-11.8v53Zm89.24-8.21q0,9.4,13.16,15.39H1849q12.65-6,12.65-15.39V254.7q0-9.4-12.65-15.39h43.42q-13.17,6-13.16,15.39Z"/><path class="cls-2" d="M1962.24,296.58l33,48.55a78.41,78.41,0,0,0,15,15.56h-41.2q7.18-6,7.18-11.28a10,10,0,0,0-1-4.11l-20.69-32.48-21.37,32.48a7.18,7.18,0,0,0-.68,3.25q0,6.17,8.72,12.14h-38.64a54.31,54.31,0,0,0,19.49-15.56l27.86-41.54-33-48.72a61.35,61.35,0,0,0-14.36-15.56h40.52q-7.18,5.82-7.18,11.28a10.86,10.86,0,0,0,1,4.11l20.52,32.48,21.37-32.48a9.57,9.57,0,0,0,.85-3.59q0-6-6.67-11.8h37.27q-13,6-20.34,15.56Z"/><path class="cls-2" d="M681.07,570.77h-6.84v-106q0-9.57-9.23-15.39h37.1q-16.76,6-16.75,15.39v72L757,449.38h15.73q-8.38,5.82-8.38,23.77v82.23q0,9.57,8.38,15.39h-37.1q17.43-6,17.44-15.39V486.82Z"/><path class="cls-2" d="M814.69,513.15v42.23q0,9.4,13.34,15.39H784.61q12.46-5.82,12.48-15.39V464.77q0-9.57-12.48-15.39H828q-13.34,5.82-13.34,15.39v39.15h54.37V464.77q0-9.57-12.48-15.39h42.57q-13.33,5.82-13.34,15.39v90.61q0,9.4,13.34,15.39H856.58q12.48-5.82,12.48-15.39V513.15Z"/><path class="cls-2" d="M936.18,510.76q0,23.76,10.08,38.29,10.1,14.21,25.65,14.19,16.41-.16,26-9.57,9.58-9.57,11.29-18.46h5.13q-2.56,13.5-13.85,25.13-11,11.28-32.65,11.62-23.43,0-38.13-15.9-15.21-16.75-15.21-45.3,0-28.89,15.9-45.48,15.9-17.08,39.15-17.09,14.18,0,21.88,5.13c2.05,1.36,3.7,2.05,5,2.05q3.24,0,10.77-5.64v39.83q-9.4-15.21-15.56-24.28-6.15-8.88-20.35-8.89-14,0-24.61,15.39Q936.17,486.83,936.18,510.76Z"/><path class="cls-2" d="M1115.28,449.38v32.14q-7.69-22.9-23.08-22.9h-12.66v96.76q0,9.57,12.49,15.39h-42.57q12.46-5.82,12.48-15.39V458.62h-12.65q-15.39,0-23.08,22.9V449.38Z"/><path class="cls-2" d="M1158.46,516.74V547q0,17.79,13.1,23.77H1128.2q12.65-6,12.65-15.39V464.77q0-9.4-12.65-15.39h40.63q49.8.18,49.81,33.68-.18,33.51-49.78,33.68Zm0-60v45.47q0,7.35,8.38,7.35h3.42q28.37-1,28.38-26.5,0-25.63-28.38-26.32Z"/><path class="cls-2" d="M1245.92,570.59c-1.25.12-2.51.18-3.76.18h-2.39q-10.43,0-11.28-9.07a12,12,0,0,1,3.41-8.2,12.58,12.58,0,0,1,8.72-3.42q6,0,8.72,3.59a3.89,3.89,0,0,0,2.91,1.54q3.24,0,9.4-5.47,7.53-6.84,15.39-19l-39.67-65.82q-8.2-9.74-13.5-9.91v-5.65h39.66V455q-7.18.17-7.18,5.64a10.63,10.63,0,0,0,1,4.1L1286.27,514l22.22-49.24a9.57,9.57,0,0,0,.86-3.59q0-5.81-9.06-6.15v-5.65h30.43V455q-3.77.35-11.11,9.91L1296,516.23Q1271.56,567.51,1245.92,570.59Z"/><path class="cls-2" d="M1358,449.38l48.73,98.82L1450,449.38h22.91q-8.39,5.82-8.38,23.77v82.23q0,9.57,8.38,15.39h-35.05q8-6,9.06-14.19V487.85l-38,82.92h-11.63l-41-82.24v66.85q0,9.4,8.21,15.39h-27.87Q1345,565,1345,555.38V473.15q0-18-8.38-23.77Z"/><path class="cls-2" d="M1516.59,512.64v41.89q0,7,8,7h24.62q23.09,0,30.94-22.9v32.14h-93.85q12.64-6,12.65-15.39V464.77q0-9.4-12.65-15.39h88.38v32.14q-7.86-22.9-31.62-22.9h-26.5v44.79h27.86q9.4,0,16.24-9.23V521q-6.84-8.38-16.24-8.38Z"/><path class="cls-2" d="M1623,513.15v42.23q0,9.4,13.33,15.39h-43.42q12.46-5.82,12.48-15.39V464.77q0-9.57-12.48-15.39h43.42Q1623,455.2,1623,464.77v39.15h54.36V464.77q0-9.57-12.48-15.39h42.57q-13.34,5.82-13.33,15.39v90.61q0,9.4,13.33,15.39h-42.57q12.48-5.82,12.48-15.39V513.15Z"/><path class="cls-2" d="M1806.91,449.38v32.14q-7.7-22.9-23.08-22.9h-12.65v96.76q0,9.57,12.48,15.39h-42.57q12.48-5.82,12.48-15.39V458.62h-12.65q-15.39,0-23.08,22.9V449.38Z"/><path class="cls-2" d="M1933.69,510.76q0,27.53-13.84,44.28Q1906.34,572,1879,572q-28.56,0-42.4-16.92-13.85-16.75-13.85-44.28,0-28.54,13.68-45.65,13.85-16.92,40.86-16.92,28.89,0,42.74,16.92Q1933.69,482.21,1933.69,510.76ZM1879,564.44q16.41,0,25.3-14,9.06-14.19,9.06-39.66-.51-25.31-10.26-39.66-9.91-14.37-25.81-14.36-16.24,0-25.13,14-9.08,14.21-9.07,40,.53,25,10.43,39.15Q1863.42,564.45,1879,564.44Z"/><path class="cls-2" d="M2006.62,449.38q34,.18,34,29.35,0,17.92-18.64,26.62,27.71,4.29,28.38,31.17,0,34.25-40.17,34.25h-55.74Q1967,565,1967,555.38V464.77q0-9.57-12.48-15.39Zm-3.07,52.49q18.79-1.55,18.8-21.88,0-23.08-26.84-23.77h-10.94v45.65Zm-19,9.23v42.06q0,10.26,14,10.25h3.76q28.38-.17,28.38-25.81,0-25.82-23.25-26.5Z"/></g></g></svg>