<svg xmlns="http://www.w3.org/2000/svg" viewBox="0 0 991.67 254.64"><defs><style>.cls-1{fill:#e25b91;}.cls-1,.cls-10,.cls-12,.cls-13,.cls-16,.cls-17,.cls-18,.cls-19,.cls-2,.cls-20,.cls-21,.cls-22,.cls-23,.cls-24,.cls-25,.cls-26,.cls-27,.cls-28,.cls-3,.cls-4,.cls-6,.cls-7,.cls-8,.cls-9{stroke:#1a1a18;}.cls-1,.cls-10,.cls-11,.cls-12,.cls-13,.cls-14,.cls-16,.cls-17,.cls-18,.cls-19,.cls-2,.cls-20,.cls-21,.cls-22,.cls-23,.cls-24,.cls-25,.cls-26,.cls-27,.cls-28,.cls-29,.cls-3,.cls-30,.cls-4,.cls-6,.cls-7,.cls-8,.cls-9{stroke-miterlimit:22.93;stroke-width:0.22px;}.cls-1,.cls-10,.cls-11,.cls-12,.cls-13,.cls-14,.cls-15,.cls-16,.cls-17,.cls-18,.cls-19,.cls-2,.cls-20,.cls-21,.cls-23,.cls-25,.cls-26,.cls-27,.cls-28,.cls-29,.cls-3,.cls-4,.cls-5,.cls-6,.cls-7,.cls-8,.cls-9{fill-rule:evenodd;}.cls-2{fill:#7d4092;}.cls-3{fill:#0068b2;}.cls-4{fill:#0c66b0;}.cls-5{fill:#0078be;}.cls-29,.cls-30,.cls-6{fill:none;}.cls-7{fill:#0086c9;}.cls-8{fill:#008fcf;}.cls-9{fill:#514d9b;}.cls-10{fill:#0097d6;}.cls-11{fill:#00aae3;stroke:#06a6df;}.cls-12{fill:#ee7691;}.cls-13{fill:#e05b91;}.cls-14{fill:#af2e87;stroke:#7d4092;}.cls-15{fill:#972f89;}.cls-16{fill:#734592;}.cls-17{fill:#4e4890;}.cls-18{fill:#2b5ba7;}.cls-19{fill:#00649d;}.cls-20{fill:#006eaf;}.cls-21,.cls-22{fill:#0073bb;}.cls-23,.cls-24{fill:#007abb;}.cls-25{fill:#0086c3;}.cls-26{fill:#1885c8;}.cls-27{fill:#1898d5;}.cls-28{fill:#1290d0;}.cls-29,.cls-30{stroke:#ea5823;}</style></defs><g id="Layer_2" data-name="Layer 2"><g id="Слой_1" data-name="Слой 1"><path class="cls-1" d="M92.07,91.88h42.34v28.35H92.07V91.88Zm56.45,14.18H77.65v56.69H92.07V134.4h42.35v28.35h14.11Z"/><path class="cls-2" d="M262.05,120.23h42.52v42.52H247.88V91.88h14.17v28.35Zm0,28.35h56.7V134.4h-56.7Z"/><polygon class="cls-3" points="432.13 106.11 432.13 120.29 474.65 120.29 474.65 134.46 432.13 134.46 432.13 148.63 488.82 148.63 488.83 162.75 417.96 162.75 417.96 91.89 488.82 91.89 488.82 106.11 432.13 106.11"/><polygon class="cls-4" points="503 106.06 503 91.89 573.86 91.89 573.86 106.1 545.51 106.1 545.51 162.75 531.34 162.75 531.34 106.06 503 106.06"/><path class="cls-5" d="M588,162.75V91.88h56.69v14.18H658.9v14.17H644.73V134.4H602.21v28.35Zm56.69-56.69h0Zm0,14.17V106.06H602.21v14.17Z"/><path class="cls-6" d="M588,162.75V91.88h56.69v14.18H658.9v14.17H644.73V134.4H602.21v28.35Zm56.69-56.69H602.21m42.52,14.17H602.21V106.06h42.52Z"/><path class="cls-7" d="M701.42,134.4v14.18H687.24v14.17H673.07V91.88h14.17V134.4Zm14.17-14.17H701.42V134.4h14.17V120.23Zm14.17-28.35h14.18v70.87H729.76V120.23H715.59V106.06h14.17Z"/><path class="cls-8" d="M814.8,148.58H829v14.17H814.8V148.58ZM800.63,134.4v14.18H814.8V134.4Zm0-14.17V134.4H772.28v28.35H758.11V91.88h14.17v28.35Zm14.17-14.17H800.63v14.17H814.8V106.06Zm0-14.18H829v14.18H814.8Z"/><path class="cls-1" d="M219.54,134.4h14.17v28.35H219.54V134.4Zm-14.18-28.34V134.4h14.18V106.06ZM177,134.4v28.35H162.84V134.4Zm14.17-28.34H177V134.4h14.17V106.06Zm14.17-14.18v14.18H191.19V91.88Z"/><path class="cls-9" d="M361.35,120.23H347.14v42.52H332.92V91.88h14.22v14.18h14.21v14.17Zm14.21,0H361.35v14.43h14.21V120.23ZM389.8,91.89h14V162.7l-14,0,0-42.5H375.56V106.06h14.22Z"/><path class="cls-10" d="M857.62,91.88h42.52v28.35H857.62V91.88ZM914,106.06H843.15v56.69h14.17V134.4h42.52v28.31H914V106.06Z"/><polygon class="cls-11" points="623.47 233.59 623.47 219.42 956.47 219.42 956.54 77.71 970.64 77.71 970.64 233.59 623.47 233.59"/><polygon class="cls-12" points="340.03 21 340.03 35.17 35.2 35.17 35.13 176.92 21.03 176.92 21.03 21 340.03 21"/><path class="cls-13" d="M87.31,229.49V234H82.77v4.54H78.24V215.89h4.53v13.6ZM91.84,225H87.31v4.53h4.53V225Zm4.54-9.07h4.53v22.68H96.38V225H91.84v-4.54h4.54Z"/><polygon class="cls-1" points="129.26 238.56 124.72 238.56 124.72 229.51 111.12 229.51 111.12 238.56 106.58 238.57 106.58 215.89 111.12 215.89 111.12 224.98 124.72 224.98 124.72 215.89 129.26 215.89 129.26 220.44 129.26 238.56"/><polygon class="cls-1" points="134.93 220.42 134.93 215.89 157.61 215.89 157.61 220.44 148.54 220.44 148.54 238.56 144 238.56 144 220.42 134.93 220.42"/><polygon class="cls-14" points="167.81 220.44 167.81 224.98 181.42 224.98 181.42 229.51 167.81 229.51 167.81 234.05 185.95 234.05 185.95 238.56 163.28 238.56 163.28 215.89 185.95 215.89 185.95 220.44 167.81 220.44"/><path class="cls-15" d="M191.62,238.57V215.89h18.14v4.53h4.54V225h-4.54v4.53h-13.6v9.08Zm18.14-18.15h0Zm0,4.54v-4.54h-13.6V225Z"/><path class="cls-6" d="M191.62,238.57V215.89h18.14v4.53h4.54V225h-4.54v4.53h-13.6v9.08Zm18.14-18.15h-13.6m13.6,4.54h-13.6v-4.54h13.6Z"/><path class="cls-16" d="M224.6,215.89h13.61V225H224.6v-9.07Zm18.05,4.53H220v18.15h4.53v-9.08h13.61v9.06h4.54V220.42Z"/><path class="cls-17" d="M266.46,234H271v4.53h-4.53V234Zm-4.54-4.54V234h4.54v-4.54Zm0-4.53v4.53h-9.07v9.07h-4.53V215.89h4.53V225Zm4.54-4.54h-4.54V225h4.54v-4.54Zm0-4.53H271v4.53h-4.53Z"/><polygon class="cls-18" points="276.66 220.42 276.66 215.89 299.34 215.89 299.34 220.44 290.27 220.44 290.27 238.56 285.73 238.56 285.73 220.42 276.66 220.42"/><path class="cls-19" d="M314.08,229.49V234h-4.54v4.54H305V215.89h4.53v13.6Zm4.54-4.53h-4.54v4.53h4.54V225Zm4.53-9.07h4.54v22.68h-4.54V225h-4.53v-4.54h4.53Z"/><polygon class="cls-19" points="337.89 220.44 337.89 224.98 351.5 224.98 351.5 229.51 351.5 234.05 356.03 234.05 356.03 229.51 337.89 229.51 337.89 234.05 351.5 234.05 351.5 238.56 333.36 238.56 333.36 215.89 351.5 215.89 351.5 220.44 351.5 224.98 356.03 224.98 356.03 220.44 337.89 220.44"/><polygon class="cls-20" points="384.38 238.62 379.84 238.62 379.84 229.57 366.24 229.57 366.24 238.62 361.7 238.62 361.7 215.94 366.24 215.94 366.24 225.03 379.84 225.03 379.84 215.94 384.38 215.94 384.38 220.5 384.38 238.62"/><polygon class="cls-21" points="394.58 220.5 394.58 225.03 408.19 225.03 408.19 229.57 408.19 234.1 412.73 234.1 412.72 229.57 394.58 229.57 394.58 234.1 408.19 234.1 408.19 238.62 390.05 238.62 390.05 215.94 394.58 215.94 394.58 220.5 394.58 220.5"/><rect class="cls-22" x="415.56" y="215.94" width="4.54" height="22.68"/><path class="cls-23" d="M435.69,229.55v4.53h-4.54v4.54h-4.53V215.94h4.53v13.61Zm4.53-4.54h-4.53v4.54h4.53V225Zm4.54-9.07h4.53v22.68h-4.53V225h-4.54v-4.53h4.54Z"/><rect class="cls-24" x="431.15" y="206.87" width="4.54" height="4.54"/><rect class="cls-24" x="440.22" y="206.87" width="4.54" height="4.54"/><polygon class="cls-25" points="498.7 238.02 494.45 238.02 481.69 238.02 477.44 238.02 477.44 216.76 481.69 216.76 481.69 233.77 494.45 233.77 494.45 216.76 498.7 216.76 498.7 233.77 502.95 233.77 502.95 242.27 498.7 242.27 498.7 238.02"/><polygon class="cls-26" points="511.74 220.86 511.74 225.4 525.35 225.4 525.35 229.93 511.74 229.93 511.74 234.47 529.88 234.47 529.88 238.98 507.21 238.99 507.21 216.31 529.88 216.31 529.88 220.86 511.74 220.86"/><polygon class="cls-27" points="558.23 239.03 553.69 239.03 553.69 229.98 540.09 229.98 540.09 239.03 535.55 239.03 535.55 216.35 540.09 216.35 540.09 225.44 553.69 225.44 553.69 216.35 558.23 216.35 558.23 220.91 558.23 239.03"/><polygon class="cls-28" points="563.9 220.89 563.9 216.35 586.58 216.35 586.58 220.9 577.51 220.9 577.51 239.03 572.97 239.03 572.97 220.89 563.9 220.89"/><path class="cls-28" d="M592.25,239V216.35h18.14v4.54h4.53v4.53h-4.53V230H596.78V239Zm18.14-13.61v-4.53H596.78v4.53Z"/><path class="cls-29" d="M963.59,28.08l28-28m-283.09,28H963.59V77.71"/><polyline class="cls-29" points="61.97 226.55 28.08 226.55 28.08 176.92"/><line class="cls-30" x1="28.08" y1="226.55" x2="0.08" y2="254.56"/></g></g></svg>