<svg width="985" height="199" viewBox="0 0 985 199" fill="none" xmlns="http://www.w3.org/2000/svg">
<path d="M158.018 198.999C148.2 199.053 128.199 197.698 108.269 185.061C102.988 181.685 76.421 164.844 71.2409 135.334C69.6923 126.569 70.4666 119.267 71.1789 113.181C72.5804 100.444 75.7396 94.7759 84.0945 71.6395C90.7304 53.2495 94.0986 43.8571 96.1041 33.9614C98.3811 22.7901 99.3915 11.3977 99.1162 0C110.885 7.24885 121.441 16.3027 130.398 26.83C138.722 36.625 157.964 59.2969 159.892 92.5614C162.215 133.058 137.243 161.568 131.529 167.778C118.716 153.023 110.195 135.037 106.893 115.776C103.591 96.516 105.633 76.7186 112.798 58.5381C108.106 65.2436 91.675 90.432 96.1118 123.673C100.58 157.186 124.498 185.905 158.018 198.999Z" fill="#7EA629"/>
<path d="M60.9658 119.531C59.7667 106.393 62.8467 93.2203 69.7465 81.9766C47.6701 72.881 23.8489 68.8028 0.00407576 70.0367C-0.181759 92.8479 6.02823 109.441 10.2482 118.47C14.2747 127.073 18.8818 136.914 29.3041 145.354C44.651 157.759 62.2434 158.734 69.2741 158.734C65.2794 146.831 59.9327 135.426 53.3388 124.742C45.437 111.936 35.8126 100.276 24.7356 90.0914C32.0742 94.2924 39.0332 99.1243 45.5337 104.532C51.0394 109.146 56.1974 114.159 60.9658 119.531V119.531Z" fill="#4F7302"/>
<path d="M271.792 57.6V108H205.264V57.6H216.856V98.496H232.768V57.6H244.36V98.496H260.2V57.6H271.792ZM303.807 87.696H295.743V108H284.151V57.6H295.743V77.976H304.095L317.343 57.6H329.655L313.167 81.936L330.159 108H316.911L303.807 87.696ZM359.46 108.864C354.228 108.864 349.5 107.736 345.276 105.48C341.1 103.224 337.812 100.128 335.412 96.192C333.06 92.208 331.884 87.744 331.884 82.8C331.884 77.856 333.06 73.416 335.412 69.48C337.812 65.496 341.1 62.376 345.276 60.12C349.5 57.864 354.228 56.736 359.46 56.736C364.692 56.736 369.396 57.864 373.572 60.12C377.748 62.376 381.036 65.496 383.436 69.48C385.836 73.416 387.036 77.856 387.036 82.8C387.036 87.744 385.836 92.208 383.436 96.192C381.036 100.128 377.748 103.224 373.572 105.48C369.396 107.736 364.692 108.864 359.46 108.864ZM359.46 98.928C362.436 98.928 365.124 98.256 367.524 96.912C369.924 95.52 371.796 93.6 373.14 91.152C374.532 88.704 375.228 85.92 375.228 82.8C375.228 79.68 374.532 76.896 373.14 74.448C371.796 72 369.924 70.104 367.524 68.76C365.124 67.368 362.436 66.672 359.46 66.672C356.484 66.672 353.796 67.368 351.396 68.76C348.996 70.104 347.1 72 345.708 74.448C344.364 76.896 343.692 79.68 343.692 82.8C343.692 85.92 344.364 88.704 345.708 91.152C347.1 93.6 348.996 95.52 351.396 96.912C353.796 98.256 356.484 98.928 359.46 98.928ZM439.544 57.6V108H428.024V67.104H410.744L410.384 77.616C410.144 84.768 409.568 90.576 408.656 95.04C407.744 99.456 406.208 102.864 404.048 105.264C401.936 107.616 398.96 108.792 395.12 108.792C393.536 108.792 391.616 108.528 389.36 108L390.08 98.136C390.704 98.328 391.4 98.424 392.168 98.424C394.952 98.424 396.896 96.792 398 93.528C399.104 90.216 399.8 85.056 400.088 78.048L400.808 57.6H439.544ZM476.539 74.16C482.683 74.16 487.387 75.528 490.651 78.264C493.963 81 495.619 85.056 495.619 90.432C495.619 96.144 493.795 100.512 490.147 103.536C486.547 106.512 481.459 108 474.883 108H452.131V57.6H463.723V74.16H476.539ZM474.235 99.36C477.259 99.36 479.611 98.616 481.291 97.128C483.019 95.64 483.883 93.48 483.883 90.648C483.883 85.416 480.667 82.8 474.235 82.8H463.723V99.36H474.235ZM550.246 57.6V108H538.582V87.336H515.686V108H504.022V57.6H515.686V77.472H538.582V57.6H550.246ZM587.281 74.16C593.425 74.16 598.129 75.528 601.393 78.264C604.705 81 606.361 85.056 606.361 90.432C606.361 96.144 604.537 100.512 600.889 103.536C597.289 106.512 592.201 108 585.625 108H562.873V57.6H574.465V74.16H587.281ZM584.977 99.36C588.001 99.36 590.353 98.616 592.033 97.128C593.761 95.64 594.625 93.48 594.625 90.648C594.625 85.416 591.409 82.8 584.977 82.8H574.465V99.36H584.977ZM612.769 57.6H624.361V108H612.769V57.6ZM675.936 98.64V108H636.912V57.6H675V66.96H648.504V77.904H671.904V86.976H648.504V98.64H675.936ZM205.264 129.6H245.944V138.888H216.856V149.256H230.824C236.92 149.256 241.552 150.528 244.72 153.072C247.936 155.616 249.544 159.288 249.544 164.088C249.544 169.128 247.768 173.04 244.216 175.824C240.664 178.608 235.648 180 229.168 180H205.264V129.6ZM228.52 171.36C231.496 171.36 233.776 170.784 235.36 169.632C236.944 168.432 237.736 166.704 237.736 164.448C237.736 160.032 234.664 157.824 228.52 157.824H216.856V171.36H228.52ZM258.42 129.6H270.012V162.432L294.06 129.6H305.004V180H293.484V147.24L269.436 180H258.42V129.6ZM341.601 180.864C336.369 180.864 331.641 179.736 327.417 177.48C323.241 175.224 319.953 172.128 317.553 168.192C315.201 164.208 314.025 159.744 314.025 154.8C314.025 149.856 315.201 145.416 317.553 141.48C319.953 137.496 323.241 134.376 327.417 132.12C331.641 129.864 336.369 128.736 341.601 128.736C346.833 128.736 351.537 129.864 355.713 132.12C359.889 134.376 363.177 137.496 365.577 141.48C367.977 145.416 369.177 149.856 369.177 154.8C369.177 159.744 367.977 164.208 365.577 168.192C363.177 172.128 359.889 175.224 355.713 177.48C351.537 179.736 346.833 180.864 341.601 180.864ZM341.601 170.928C344.577 170.928 347.265 170.256 349.665 168.912C352.065 167.52 353.937 165.6 355.281 163.152C356.673 160.704 357.369 157.92 357.369 154.8C357.369 151.68 356.673 148.896 355.281 146.448C353.937 144 352.065 142.104 349.665 140.76C347.265 139.368 344.577 138.672 341.601 138.672C338.625 138.672 335.937 139.368 333.537 140.76C331.137 142.104 329.241 144 327.849 146.448C326.505 148.896 325.833 151.68 325.833 154.8C325.833 157.92 326.505 160.704 327.849 163.152C329.241 165.6 331.137 167.52 333.537 168.912C335.937 170.256 338.625 170.928 341.601 170.928ZM421.684 129.6V180H410.164V139.104H392.884L392.524 149.616C392.284 156.768 391.708 162.576 390.796 167.04C389.884 171.456 388.348 174.864 386.188 177.264C384.076 179.616 381.1 180.792 377.26 180.792C375.676 180.792 373.756 180.528 371.5 180L372.22 170.136C372.844 170.328 373.54 170.424 374.308 170.424C377.092 170.424 379.036 168.792 380.14 165.528C381.244 162.216 381.94 157.056 382.228 150.048L382.948 129.6H421.684ZM468.4 169.2H445L440.536 180H428.584L451.048 129.6H462.568L485.104 180H472.864L468.4 169.2ZM464.728 160.344L456.736 141.048L448.744 160.344H464.728ZM491.787 129.6H532.467V138.888H503.379V149.256H517.347C523.443 149.256 528.075 150.528 531.243 153.072C534.459 155.616 536.067 159.288 536.067 164.088C536.067 169.128 534.291 173.04 530.739 175.824C527.187 178.608 522.171 180 515.691 180H491.787V129.6ZM515.043 171.36C518.019 171.36 520.299 170.784 521.883 169.632C523.467 168.432 524.259 166.704 524.259 164.448C524.259 160.032 521.187 157.824 515.043 157.824H503.379V171.36H515.043ZM568.992 180.864C563.76 180.864 559.032 179.736 554.808 177.48C550.632 175.224 547.344 172.128 544.944 168.192C542.592 164.208 541.416 159.744 541.416 154.8C541.416 149.856 542.592 145.416 544.944 141.48C547.344 137.496 550.632 134.376 554.808 132.12C559.032 129.864 563.76 128.736 568.992 128.736C574.224 128.736 578.928 129.864 583.104 132.12C587.28 134.376 590.568 137.496 592.968 141.48C595.368 145.416 596.568 149.856 596.568 154.8C596.568 159.744 595.368 164.208 592.968 168.192C590.568 172.128 587.28 175.224 583.104 177.48C578.928 179.736 574.224 180.864 568.992 180.864ZM568.992 170.928C571.968 170.928 574.656 170.256 577.056 168.912C579.456 167.52 581.328 165.6 582.672 163.152C584.064 160.704 584.76 157.92 584.76 154.8C584.76 151.68 584.064 148.896 582.672 146.448C581.328 144 579.456 142.104 577.056 140.76C574.656 139.368 571.968 138.672 568.992 138.672C566.016 138.672 563.328 139.368 560.928 140.76C558.528 142.104 556.632 144 555.24 146.448C553.896 148.896 553.224 151.68 553.224 154.8C553.224 157.92 553.896 160.704 555.24 163.152C556.632 165.6 558.528 167.52 560.928 168.912C563.328 170.256 566.016 170.928 568.992 170.928ZM627.369 129.6C631.833 129.6 635.697 130.344 638.961 131.832C642.273 133.32 644.817 135.432 646.593 138.168C648.369 140.904 649.257 144.144 649.257 147.888C649.257 151.584 648.369 154.824 646.593 157.608C644.817 160.344 642.273 162.456 638.961 163.944C635.697 165.384 631.833 166.104 627.369 166.104H617.217V180H605.553V129.6H627.369ZM626.721 156.6C630.225 156.6 632.889 155.856 634.713 154.368C636.537 152.832 637.449 150.672 637.449 147.888C637.449 145.056 636.537 142.896 634.713 141.408C632.889 139.872 630.225 139.104 626.721 139.104H617.217V156.6H626.721ZM688.548 169.2H665.148L660.684 180H648.732L671.196 129.6H682.716L705.252 180H693.012L688.548 169.2ZM684.876 160.344L676.884 141.048L668.892 160.344H684.876ZM747.925 139.104H731.797V180H720.277V139.104H704.221V129.6H747.925V139.104ZM778.593 180.864C773.361 180.864 768.633 179.736 764.409 177.48C760.233 175.224 756.945 172.128 754.545 168.192C752.193 164.208 751.017 159.744 751.017 154.8C751.017 149.856 752.193 145.416 754.545 141.48C756.945 137.496 760.233 134.376 764.409 132.12C768.633 129.864 773.361 128.736 778.593 128.736C783.825 128.736 788.529 129.864 792.705 132.12C796.881 134.376 800.169 137.496 802.569 141.48C804.969 145.416 806.169 149.856 806.169 154.8C806.169 159.744 804.969 164.208 802.569 168.192C800.169 172.128 796.881 175.224 792.705 177.48C788.529 179.736 783.825 180.864 778.593 180.864ZM778.593 170.928C781.569 170.928 784.257 170.256 786.657 168.912C789.057 167.52 790.929 165.6 792.273 163.152C793.665 160.704 794.361 157.92 794.361 154.8C794.361 151.68 793.665 148.896 792.273 146.448C790.929 144 789.057 142.104 786.657 140.76C784.257 139.368 781.569 138.672 778.593 138.672C775.617 138.672 772.929 139.368 770.529 140.76C768.129 142.104 766.233 144 764.841 146.448C763.497 148.896 762.825 151.68 762.825 154.8C762.825 157.92 763.497 160.704 764.841 163.152C766.233 165.6 768.129 167.52 770.529 168.912C772.929 170.256 775.617 170.928 778.593 170.928ZM836.971 129.6C841.435 129.6 845.299 130.344 848.563 131.832C851.875 133.32 854.419 135.432 856.195 138.168C857.971 140.904 858.859 144.144 858.859 147.888C858.859 151.584 857.971 154.824 856.195 157.608C854.419 160.344 851.875 162.456 848.563 163.944C845.299 165.384 841.435 166.104 836.971 166.104H826.819V180H815.155V129.6H836.971ZM836.323 156.6C839.827 156.6 842.491 155.856 844.315 154.368C846.139 152.832 847.051 150.672 847.051 147.888C847.051 145.056 846.139 142.896 844.315 141.408C842.491 139.872 839.827 139.104 836.323 139.104H826.819V156.6H836.323ZM866.553 129.6H878.145V162.432L902.193 129.6H913.137V180H901.617V147.24L877.569 180H866.553V129.6ZM925.686 129.6H937.278V162.432L961.326 129.6H972.27V180H960.75V147.24L936.702 180H925.686V129.6Z" fill="black"/>
</svg>
