<?xml version="1.0" encoding="utf-8"?>
<!-- Generator: Adobe Illustrator 24.0.1, SVG Export Plug-In . SVG Version: 6.00 Build 0)  -->
<svg version="1.1" id="Слой_1" xmlns="http://www.w3.org/2000/svg" xmlns:xlink="http://www.w3.org/1999/xlink" x="0px" y="0px"
	 viewBox="0 0 841.4 483" style="enable-background:new 0 0 841.4 483;" xml:space="preserve">
<style type="text/css">
	.st0{opacity:0.91;fill:#FF5F5F;}
	.st1{fill:#FFE169;}
	.st2{fill:#FFFFFF;}
	.st3{fill:#4F93F6;}
	.st4{fill:#FBBCFF;}
</style>
<g>
	<path class="st0" d="M648.7,127.2c-24.6-56.4-76.7-98.1-139.4-108h0c-9.4-1.5-19.1-2.3-29-2.3c-10,0-19.9,0.8-29.5,2.4
		c-62.9,10.1-115.1,52.2-139.4,109c-9.5,22.2-14.8,46.6-14.8,72.3c0,25.8,5.3,50.3,14.9,72.5c19.7,45.8,57.4,81.9,104.3,99.5
		c20.1,7.5,41.8,11.7,64.5,11.7c22.7,0,44.4-4.1,64.5-11.6h0c46.4-17.4,83.9-53.1,103.8-98.3c9.9-22.6,15.4-47.5,15.4-73.7
		C663.9,174.5,658.5,149.7,648.7,127.2z M512.5,271c-0.8,35-12.2,62.1-32.5,79.4c-20.3-17.4-31.7-44.5-32.4-79.6c0,0,0,0,0,0
		c0-1.1,0.1-2.3,0.1-3.5V119.6c0-1.2,0-2.4-0.1-3.5c0,0,0,0,0,0c0.7-35.4,12.1-62.8,32.4-80.3c20.3,17.5,31.7,44.9,32.5,80.1v0
		c-0.1,1.2-0.1,2.4-0.1,3.7v147.7C512.4,268.6,512.5,269.8,512.5,271L512.5,271z"/>
	<path class="st1" d="M512.5,116c-0.1,1.2-0.1,2.4-0.1,3.7v147.7c0,1.2,0,2.4,0.1,3.6c0-1.2,0-2.4,0-3.6V119.6
		C512.5,118.4,512.5,117.2,512.5,116z M447.6,270.9c-1,25.7-13.4,38.9-35.9,38.9c-23.5,0-35.4-14.5-35.4-42.4V119.6
		c0-28.4,12-43.4,35.4-43.4c22.5,0,34.9,13.7,35.9,39.9c0.7-35.4,12.1-62.8,32.4-80.3c-8.3-7.2-18-12.7-29.2-16.5
		c-62.9,10.1-115.1,52.2-139.4,109v139c0,2,0,3.9,0.1,5.8c19.7,45.8,57.4,81.9,104.3,99.5c26.4-0.7,48.1-8.4,64.3-22.2
		C459.7,333.1,448.3,306,447.6,270.9z"/>
	<path class="st2" d="M450.8,19.3c-62.9,10.1-115.1,52.2-139.4,109v-8.7c0-66.9,37.4-106.3,100.3-106.3
		C426.2,13.3,439.2,15.4,450.8,19.3z"/>
	<path class="st2" d="M415.8,372.6c-1.3,0-2.7,0.1-4,0.1c-61,0-98.1-36.7-100.2-99.5C331.2,318.9,368.9,355.1,415.8,372.6z"/>
	<path class="st3" d="M509.3,19.2L509.3,19.2c-11.2,3.8-21,9.3-29.3,16.5c20.3,17.5,31.7,44.9,32.5,80.1c1-26,12.9-39.7,35.4-39.7
		c23.5,0,35.9,15,35.9,43.4v147.7c0,27.9-12.5,42.4-35.9,42.4c-22.4,0-34.4-13.2-35.4-38.8c-0.8,35-12.2,62.1-32.5,79.4
		c16.2,13.9,38.1,21.6,64.7,22.2h0c46.4-17.4,83.9-53.1,103.8-98.3c0.1-2.3,0.1-4.6,0.1-7V127.2C624.1,70.8,571.9,29.2,509.3,19.2z
		 M447.5,119.6v147.7c0,1.2,0,2.3,0,3.5c0-1.1,0.1-2.3,0.1-3.5V119.6c0-1.2,0-2.4-0.1-3.5C447.6,117.3,447.5,118.5,447.5,119.6z"/>
	<path class="st4" d="M512.4,119.6v147.7c0,1.2,0,2.4,0.1,3.6c0,0,0,0,0,0c-0.8,35-12.2,62.1-32.5,79.4
		c-20.3-17.4-31.7-44.5-32.4-79.6c0,0,0,0,0,0c0-1.1,0.1-2.3,0.1-3.5V119.6c0-1.2,0-2.4-0.1-3.5c0,0,0,0,0,0
		c0.7-35.4,12.1-62.8,32.4-80.3c20.3,17.5,31.7,44.9,32.5,80.1c0,0,0,0,0,0C512.5,117.2,512.4,118.4,512.4,119.6z"/>
	<path class="st2" d="M648.7,119.6v7.6c-24.6-56.4-76.7-98.1-139.4-108c11.5-3.9,24.4-5.9,38.6-5.9
		C611.3,13.3,648.7,52.8,648.7,119.6z"/>
	<path class="st2" d="M648.5,274.4c-2.6,62.1-39.6,98.3-100.7,98.3c-1,0-2.1,0-3.1,0C591.2,355.2,628.7,319.6,648.5,274.4z"/>
	<path class="st2" d="M255.3,82.6V315h-44.8V142.7L178.6,161v-48.5L227,82.6H255.3z"/>
	<path class="st2" d="M691.4,289.1c0-73.7,83-106.9,83-145.7c0-10-5.3-20.3-18.3-20.3c-11.9,0-19.3,8.6-19.9,24.2h-42.5
		c2-44.2,24.2-66.7,61.7-66.7c44.1,0,63.7,31.2,63.7,60.4c0,59.4-80.3,98.9-80.3,134.1h81.3V317H691.4V289.1z"/>
	<g>
		<path class="st2" d="M133.4,277.6H63.6l-12.1,53.2h-40L78,66.8h41.1l66.4,264h-39.6L133.4,277.6z M125.5,242.2l-16.6-70.9
			c-3.8-17.3-7.9-42.6-9.8-56.6H98c-1.9,14-5.7,39.2-9.8,56.6l-16.2,70.9H125.5z"/>
	</g>
	<g>
		<g>
			<path class="st2" d="M179.1,436.9v24.4h-30.2v-24.4h5.1v19.7h7.4v-19.7h5.1v19.7h7.4v-19.7H179.1z"/>
			<path class="st2" d="M219.7,436.9l-8.9,10.7l10.8,13.8h-6.1l-9.3-12.1v12.1H201v-24.4h5.1v9.3l7.6-9.3H219.7z"/>
			<path class="st2" d="M254.1,436.9c7.4,0,12.5,5.6,12.5,12.2c0,7.2-5.6,12.2-12.5,12.2c-7.4,0-12.5-5.5-12.5-12.2
				C241.7,442.2,247.1,436.9,254.1,436.9z M254.1,456.7c4.5,0,7.1-3.5,7.1-7.6c0-4.5-3.1-7.6-7.1-7.6c-4.5,0-7.2,3.5-7.2,7.6
				C247,453.2,249.8,456.7,254.1,456.7z"/>
			<path class="st2" d="M311,436.9v24.4h-5.1v-19.7h-7.5v11.7c0,2.2-0.8,4.1-2.3,5.7c-1.5,1.5-3.4,2.3-5.6,2.3c-1.4,0-2.7-0.3-3.9-1
				l2.5-4.4c0.4,0.2,0.9,0.4,1.4,0.4c0.8,0,1.5-0.3,2-0.9c0.6-0.6,0.9-1.2,0.9-2v-16.4H311z"/>
			<path class="st2" d="M346.3,436.9l9.7,24.4h-5l-1.5-3.7h-11.4l-1.5,3.7h-5l9.7-24.4H346.3z M339.9,453h7.7l-3.9-10.2L339.9,453z"
				/>
			<path class="st2" d="M416,436.9l9.7,24.4h-5l-1.5-3.7h-11.4l-1.5,3.7h-5l9.7-24.4H416z M409.6,453h7.7l-3.9-10.2L409.6,453z"/>
			<path class="st2" d="M467.4,436.9v24.4h-5.1v-11h-11v11h-5.1v-24.4h5.1v8.7h11v-8.7H467.4z"/>
			<path class="st2" d="M494.4,436.9v15.5l14.7-15.5h2.6v24.4h-5.1v-15.5l-14.7,15.5h-2.6v-24.4H494.4z"/>
			<path class="st2" d="M560,436.9v24.4h-5.1v-15.2l-8.1,9.3l-8.1-9.3v15.2h-5.1v-24.4h2.6l10.7,12.2l10.7-12.2H560z"/>
			<path class="st2" d="M595.3,436.9l9.7,24.4h-5l-1.5-3.7h-11.4l-1.5,3.7h-5l9.7-24.4H595.3z M588.9,453h7.7l-3.9-10.2L588.9,453z"
				/>
			<path class="st2" d="M645.7,436.9v19.7h3.6v9.7h-5.1v-5h-19.6v-24.4h5.1v19.7h10.9v-19.7H645.7z"/>
			<path class="st2" d="M675.7,436.9v15.5l14.7-15.5h2.6v24.4h-5.1v-15.5l-14.7,15.5h-2.6v-24.4H675.7z"/>
			<path class="st2" d="M719.9,436.9v15.5l14.7-15.5h2.6v24.4h-5.1v-15.5l-14.7,15.5h-2.6v-24.4H719.9z"/>
		</g>
	</g>
</g>
</svg>
