<svg width="259" height="50" viewBox="0 0 259 50" fill="none" xmlns="http://www.w3.org/2000/svg">
<path d="M63.64 18.2L61.96 37H56.8L59.32 10.36H66.52L73.32 29.48L79.92 10.36H87.12L89.56 37H84.36L82.52 18.28L75.48 37.28L70.72 37.72L63.64 18.2ZM94.2453 10.36H110.445V15.4H99.9653V20.72H108.645V25.6H99.9653V31.96H110.445V37H94.2453V10.36ZM115.456 10.36H121.256V31.96H130.856V37H115.456V10.36ZM145.895 37.52C143.281 37.52 140.975 36.9467 138.975 35.8C136.975 34.6533 135.415 33.04 134.295 30.96C133.201 28.88 132.655 26.4933 132.655 23.8C132.655 21.08 133.201 18.68 134.295 16.6C135.388 14.52 136.935 12.9067 138.935 11.76C140.935 10.6133 143.255 10.04 145.895 10.04C148.508 10.04 150.815 10.6133 152.815 11.76C154.815 12.88 156.361 14.4667 157.455 16.52C158.548 18.5733 159.095 20.9467 159.095 23.64C159.095 26.3867 158.548 28.8133 157.455 30.92C156.361 33 154.815 34.6267 152.815 35.8C150.815 36.9467 148.508 37.52 145.895 37.52ZM145.895 32.44C148.081 32.44 149.828 31.6533 151.135 30.08C152.468 28.5067 153.135 26.4133 153.135 23.8C153.135 22.0933 152.828 20.5867 152.215 19.28C151.628 17.9467 150.775 16.9333 149.655 16.24C148.561 15.52 147.308 15.16 145.895 15.16C144.481 15.16 143.215 15.52 142.095 16.24C141.001 16.9333 140.148 17.9467 139.535 19.28C138.948 20.5867 138.655 22.0933 138.655 23.8C138.655 25.5067 138.948 27.0133 139.535 28.32C140.148 29.6267 141.001 30.64 142.095 31.36C143.188 32.08 144.455 32.44 145.895 32.44ZM169.343 18.2L167.663 37H162.503L165.023 10.36H172.223L179.023 29.48L185.623 10.36H192.823L195.263 37H190.063L188.223 18.28L181.183 37.28L176.423 37.72L169.343 18.2ZM207.188 10.36H214.148L224.028 37H218.028L215.868 30.92H205.388L203.348 37H197.428L207.188 10.36ZM214.148 25.96L210.548 15.76L207.068 25.96H214.148ZM227.097 10.36H233.897L244.937 29.04V10.36H250.257V37H243.537L232.417 18.2V37H227.097V10.36Z" fill="white"/>
<path d="M38.0779 0H11.9223C8.93469 0 6.56715 2.36753 6.56715 5.35513V44.6449C6.56715 47.6325 8.93469 50 11.9223 50H38.0779C41.0655 50 43.433 47.6325 43.433 44.6449V5.35513C43.433 2.36753 41.0655 0 38.0779 0ZM25.0001 5.63698C28.8332 5.63698 31.8772 8.73732 31.8772 12.4577C31.8772 16.1781 28.8332 19.3348 25.0001 19.3348C21.1669 19.3348 18.123 16.2345 18.123 12.5141C18.123 8.79369 21.1669 5.63698 25.0001 5.63698ZM25.0001 44.4758C18.4612 44.4758 13.1624 39.177 13.1624 32.6945C13.1624 26.212 18.4612 20.9132 25.0001 20.9132C31.539 20.9132 36.8377 26.212 36.8377 32.6945C36.8377 39.177 31.539 44.4758 25.0001 44.4758Z" fill="#00A3FF"/>
<path d="M25 15.7835C26.8368 15.7835 28.3258 14.2945 28.3258 12.4577C28.3258 10.6209 26.8368 9.13191 25 9.13191C23.1632 9.13191 21.6742 10.6209 21.6742 12.4577C21.6742 14.2945 23.1632 15.7835 25 15.7835Z" fill="#00A3FF"/>
<path d="M25.0001 26.9448C21.9561 26.9448 19.5322 29.3687 19.5322 32.4126C19.5322 35.4566 21.9561 37.8805 25.0001 37.8805C28.0441 37.8805 30.468 35.4566 30.468 32.4126C30.468 29.425 28.0441 26.9448 25.0001 26.9448Z" fill="#00A3FF"/>
</svg>
