<svg width="66" height="22" viewBox="0 0 66 22" fill="none" xmlns="http://www.w3.org/2000/svg">
<path fill-rule="evenodd" clip-rule="evenodd" d="M11.3254 18.8209L12.8182 15.9586L14.2288 18.8209H11.3254ZM15.248 14.2495H11.799L7.77332 21.5801H9.87365L10.5223 20.3446H15.0215L15.6702 21.5801H19.2222L15.248 14.2495Z" fill="#E60D2E"/>
<path fill-rule="evenodd" clip-rule="evenodd" d="M8.89554 14.2495H0V15.8454H2.83134V21.5801H6.06421V15.8454H8.89554V14.2495Z" fill="#E60D2E"/>
<path fill-rule="evenodd" clip-rule="evenodd" d="M26.8925 14.2495H18.1823V15.8454H21.0136V21.5801H24.2465V15.8454H26.8925V14.2495Z" fill="#E60D2E"/>
<path d="M49.6461 14.2495V21.5801H52.879V18.8929H56.4001V17.2971H52.879V15.8454H59.8492V21.5801H63.0718V15.8454H65.9752V14.2495H49.6461Z" fill="#00AB69"/>
<path d="M42.7584 19.9843V18.7076H46.9591V17.1118H42.7584V15.8454H48.1225V14.2495H39.5564V21.5801H48.1945V19.9843H42.7584Z" fill="#00AB69"/>
<path d="M35.6028 14.2495V17.9148L30.4858 14.2495H27.9839V21.5801H30.1563V17.5545L35.4586 21.5801H37.8163V14.2495H35.6028Z" fill="#00AB69"/>
<path d="M1.85323 9.51346C2.1827 9.51346 2.47098 9.62672 2.69748 9.85322C2.92399 10.0797 3.04754 10.3577 3.04754 10.6769C3.04754 11.0063 2.93429 11.2843 2.70778 11.5108C2.48127 11.7373 2.19299 11.8403 1.86353 11.8403H0.422119V7.99998H2.72837V8.48389H0.936908V9.51346H1.85323ZM1.85323 11.3667C2.03856 11.3667 2.20329 11.3049 2.33713 11.1711C2.47098 11.0372 2.53275 10.8725 2.53275 10.6769C2.53275 10.4813 2.47098 10.3165 2.33713 10.193C2.20329 10.0591 2.03856 9.99736 1.85323 9.99736H0.916317V11.377H1.85323V11.3667Z" fill="#00AB69"/>
<path d="M5.76568 9.10164V11.8403H5.29207V9.55465H4.20072V10.6769C4.20072 11.1299 4.10806 11.4388 3.93303 11.6138C3.74771 11.7888 3.50061 11.8609 3.17114 11.8403V11.3873C3.35647 11.4079 3.50061 11.3667 3.59327 11.2638C3.68593 11.1608 3.73741 10.9549 3.73741 10.6666V9.10164H5.76568Z" fill="#00AB69"/>
<path d="M8.75142 9.10163H9.22502V11.8403H8.75142V11.3667C8.51461 11.727 8.16456 11.9124 7.71154 11.9124C7.3306 11.9124 7.00114 11.7682 6.73345 11.4902C6.46576 11.2123 6.33191 10.8725 6.33191 10.471C6.33191 10.0694 6.46576 9.72967 6.73345 9.45168C7.00114 9.1737 7.3306 9.02956 7.71154 9.02956C8.16456 9.02956 8.51461 9.21488 8.75142 9.57523V9.10163ZM7.77332 11.4491C8.0513 11.4491 8.28811 11.3564 8.47343 11.1711C8.65875 10.9858 8.75142 10.7489 8.75142 10.471C8.75142 10.193 8.65875 9.95618 8.47343 9.77085C8.28811 9.58553 8.0513 9.49287 7.77332 9.49287C7.49533 9.49287 7.26883 9.58553 7.0835 9.77085C6.89818 9.95618 6.80552 10.193 6.80552 10.471C6.80552 10.7489 6.89818 10.9858 7.0835 11.1711C7.27912 11.3564 7.50563 11.4491 7.77332 11.4491Z" fill="#00AB69"/>
<path d="M11.7578 9.10164V9.56495H10.4399V11.8506H9.96631V9.10164H11.7578Z" fill="#00AB69"/>
<path d="M14.3728 11.4902C14.0949 11.7682 13.7448 11.9021 13.3433 11.9021C12.9417 11.9021 12.602 11.7682 12.324 11.4902C12.046 11.2123 11.9019 10.8725 11.9019 10.4607C11.9019 10.0591 12.046 9.70907 12.324 9.43109C12.602 9.1531 12.9417 9.01926 13.3433 9.01926C13.7448 9.01926 14.0846 9.1531 14.3728 9.43109C14.6508 9.70907 14.795 10.0488 14.795 10.4607C14.795 10.8725 14.6508 11.2123 14.3728 11.4902ZM13.3536 11.4491C13.6315 11.4491 13.8581 11.3564 14.0434 11.1711C14.2287 10.9857 14.3214 10.7489 14.3214 10.471C14.3214 10.193 14.2287 9.95617 14.0434 9.77085C13.8581 9.58552 13.6315 9.49286 13.3536 9.49286C13.0859 9.49286 12.8594 9.58552 12.6637 9.77085C12.4784 9.95617 12.3858 10.193 12.3858 10.471C12.3858 10.7489 12.4784 10.9857 12.6637 11.1711C12.8491 11.3564 13.0756 11.4491 13.3536 11.4491Z" fill="#00AB69"/>
<path d="M17.2865 9.10164V9.56495H16.3496V11.8506H15.876V9.56495H14.9391V9.10164H17.2865Z" fill="#00AB69"/>
<path d="M19.5311 10.4298C19.8091 10.543 19.9532 10.7593 19.9532 11.0681C19.9532 11.2946 19.8811 11.48 19.7267 11.6241C19.5723 11.7682 19.3561 11.8403 19.0781 11.8403H17.7087V9.10164H18.9648C19.2428 9.10164 19.4487 9.17371 19.6032 9.30755C19.7576 9.4414 19.8297 9.62672 19.8297 9.84293C19.8297 10.1106 19.7267 10.3062 19.5311 10.4298ZM18.9442 9.52377H18.172V10.2445H18.9442C19.2222 10.2445 19.3561 10.1209 19.3561 9.87382C19.3664 9.64731 19.2222 9.52377 18.9442 9.52377ZM19.0472 11.4079C19.181 11.4079 19.2943 11.377 19.3664 11.3049C19.4384 11.2432 19.4796 11.1505 19.4796 11.0269C19.4796 10.9137 19.4384 10.821 19.3664 10.7593C19.2943 10.6975 19.181 10.6666 19.0472 10.6666H18.172V11.4079H19.0472V11.4079Z" fill="#00AB69"/>
<path d="M22.7846 11.4902C22.5066 11.7682 22.1565 11.9021 21.755 11.9021C21.3535 11.9021 21.0137 11.7682 20.7357 11.4902C20.4577 11.2123 20.3136 10.8725 20.3136 10.4607C20.3136 10.0591 20.4577 9.70907 20.7357 9.43109C21.0137 9.1531 21.3535 9.01926 21.755 9.01926C22.1565 9.01926 22.4963 9.1531 22.7846 9.43109C23.0626 9.70907 23.2067 10.0488 23.2067 10.4607C23.2067 10.8725 23.0626 11.2123 22.7846 11.4902ZM21.755 11.4491C22.033 11.4491 22.2595 11.3564 22.4448 11.1711C22.6301 10.9857 22.7228 10.7489 22.7228 10.471C22.7228 10.193 22.6301 9.95617 22.4448 9.77085C22.2595 9.58552 22.033 9.49286 21.755 9.49286C21.4873 9.49286 21.2608 9.58552 21.0652 9.77085C20.8799 9.95617 20.7872 10.193 20.7872 10.471C20.7872 10.7489 20.8799 10.9857 21.0652 11.1711C21.2608 11.3564 21.4873 11.4491 21.755 11.4491Z" fill="#00AB69"/>
<path d="M25.2864 9.02956C25.6674 9.02956 25.9968 9.1737 26.2645 9.45168C26.5322 9.72967 26.6661 10.0694 26.6661 10.471C26.6661 10.8725 26.5322 11.2123 26.2645 11.4902C25.9968 11.7682 25.6674 11.9124 25.2864 11.9124C24.8334 11.9124 24.4834 11.727 24.2466 11.3667V12.9317H23.7729V9.10163H24.2466V9.57523C24.4834 9.20458 24.8334 9.02956 25.2864 9.02956ZM25.2247 11.4491C25.5026 11.4491 25.7291 11.3564 25.9145 11.1711C26.0998 10.9858 26.1925 10.7489 26.1925 10.471C26.1925 10.193 26.0998 9.95618 25.9145 9.77085C25.7291 9.58553 25.5026 9.49287 25.2247 9.49287C24.9467 9.49287 24.7099 9.58553 24.5245 9.77085C24.3392 9.95618 24.2466 10.193 24.2466 10.471C24.2466 10.7489 24.3392 10.9858 24.5245 11.1711C24.7099 11.3564 24.9467 11.4491 25.2247 11.4491Z" fill="#00AB69"/>
<path d="M29.2297 9.10164H29.6106V11.8403H29.137V9.915L27.6132 11.8403H27.2323V9.10164H27.7059V11.0269L29.2297 9.10164Z" fill="#00AB69"/>
<path d="M32.3803 9.10164V9.56495H31.4434V11.8506H30.9698V9.56495H30.0328V9.10164H32.3803Z" fill="#00AB69"/>
<path d="M33.0184 10.6872C33.0699 10.9343 33.1832 11.1196 33.3582 11.2534C33.5332 11.3873 33.7494 11.4594 34.0171 11.4594C34.3775 11.4594 34.6452 11.3255 34.8099 11.0578L35.2114 11.2843C34.9438 11.6962 34.5422 11.9021 34.0068 11.9021C33.5744 11.9021 33.2141 11.7682 32.9464 11.4902C32.6787 11.2226 32.5345 10.8725 32.5345 10.4607C32.5345 10.0488 32.6684 9.70907 32.9361 9.43109C33.2038 9.1531 33.5435 9.01926 33.976 9.01926C34.3775 9.01926 34.707 9.1634 34.9643 9.44138C35.2217 9.72966 35.3453 10.0694 35.3453 10.4607C35.3453 10.5327 35.335 10.6048 35.3247 10.6769H33.0184V10.6872ZM33.9657 9.47227C33.7083 9.47227 33.5023 9.54434 33.3273 9.68848C33.1626 9.83262 33.0596 10.0282 33.0184 10.265H34.8511C34.8099 10.0077 34.707 9.81203 34.5422 9.67819C34.3775 9.54434 34.1922 9.47227 33.9657 9.47227Z" fill="#00AB69"/>
<path d="M38.0531 9.10164V11.8403H37.5795V9.55465H36.4984V10.6769C36.4984 11.1299 36.4058 11.4388 36.2308 11.6138C36.0454 11.7888 35.7983 11.8609 35.4689 11.8403V11.3873C35.6542 11.4079 35.7983 11.3667 35.891 11.2638C35.9837 11.1608 36.0351 10.9549 36.0351 10.6666V9.10164H38.0531Z" fill="#00AB69"/>
<path d="M39.9373 10.09C40.2153 10.09 40.4418 10.1724 40.6168 10.3371C40.8022 10.5019 40.8845 10.7078 40.8845 10.9652C40.8845 11.2226 40.7919 11.4388 40.6168 11.6035C40.4418 11.7682 40.205 11.8506 39.9373 11.8506H38.7842V9.10164H39.2578V10.09H39.9373ZM39.9373 11.3976C40.0712 11.3976 40.1844 11.3564 40.2771 11.2843C40.3697 11.202 40.4212 11.099 40.4212 10.9652C40.4212 10.8313 40.3697 10.7284 40.2771 10.646C40.1844 10.5636 40.0712 10.5225 39.9373 10.5225H39.2578V11.3976H39.9373Z" fill="#00AB69"/>
<path d="M43.3041 9.10164H43.7777V11.8403H43.3041V10.6975H41.8833V11.8403H41.4097V9.10164H41.8833V10.2445H43.3041V9.10164Z" fill="#00AB69"/>
<path d="M45.6617 10.09C45.9397 10.09 46.1662 10.1724 46.3412 10.3371C46.5265 10.5019 46.6089 10.7078 46.6089 10.9652C46.6089 11.2226 46.5162 11.4388 46.3412 11.6035C46.1662 11.7682 45.9294 11.8506 45.6617 11.8506H44.5085V9.10164H44.9821V10.09H45.6617ZM45.6617 11.3976C45.7955 11.3976 45.9088 11.3564 46.0014 11.2843C46.0941 11.202 46.1456 11.099 46.1456 10.9652C46.1456 10.8313 46.0941 10.7284 46.0014 10.646C45.9088 10.5636 45.7955 10.5225 45.6617 10.5225H44.9821V11.3976H45.6617ZM46.9692 9.10164H47.4428V11.8403H46.9692V9.10164Z" fill="#00AB69"/>
<path d="M50.1713 9.10163H50.5523V11.8403H50.0787V9.915L48.5549 11.8403H48.174V9.10163H48.6476V11.0269L50.1713 9.10163ZM48.627 8.6898V8.27797H50.1096V8.6898H48.627Z" fill="#00AB69"/>
<path d="M55.4015 9.51346C55.6589 9.78115 55.7824 10.1003 55.7824 10.471C55.7824 10.8519 55.6589 11.1711 55.4015 11.4285C55.1441 11.6962 54.8043 11.8506 54.3719 11.8918V12.9317H53.8983V11.8918C53.4659 11.8403 53.1261 11.6859 52.8687 11.4285C52.6113 11.1608 52.4878 10.8416 52.4878 10.471C52.4878 10.09 52.6113 9.77086 52.8687 9.51346C53.1261 9.24577 53.4659 9.09134 53.8983 9.05015V7.99998H54.3719V9.03986C54.8043 9.09134 55.1441 9.24577 55.4015 9.51346ZM52.9614 10.471C52.9614 10.7181 53.0438 10.9343 53.2085 11.1093C53.3732 11.2843 53.5997 11.3976 53.8983 11.4285V9.50317C53.61 9.54435 53.3732 9.64731 53.2085 9.82234C53.0438 9.99736 52.9614 10.2136 52.9614 10.471ZM54.3719 11.4388C54.6602 11.3976 54.897 11.2946 55.0617 11.1196C55.2265 10.9446 55.3088 10.7284 55.3088 10.4813C55.3088 10.2342 55.2265 10.018 55.0617 9.84293C54.897 9.6679 54.6705 9.55465 54.3719 9.52376V11.4388Z" fill="#00AB69"/>
<path d="M58.6653 11.4902C58.3873 11.7682 58.0373 11.9021 57.6357 11.9021C57.2342 11.9021 56.8944 11.7682 56.6165 11.4902C56.3385 11.2123 56.1943 10.8725 56.1943 10.4607C56.1943 10.0591 56.3385 9.70907 56.6165 9.43109C56.8944 9.1531 57.2342 9.01926 57.6357 9.01926C58.0373 9.01926 58.377 9.1531 58.6653 9.43109C58.9433 9.70907 59.0874 10.0488 59.0874 10.4607C59.0874 10.8725 58.9433 11.2123 58.6653 11.4902ZM57.6357 11.4491C57.9137 11.4491 58.1402 11.3564 58.3256 11.1711C58.5109 10.9857 58.6035 10.7489 58.6035 10.471C58.6035 10.193 58.5109 9.95617 58.3256 9.77085C58.1402 9.58552 57.9137 9.49286 57.6357 9.49286C57.3681 9.49286 57.1415 9.58552 56.9459 9.77085C56.7606 9.95617 56.6679 10.193 56.6679 10.471C56.6679 10.7489 56.7606 10.9857 56.9459 11.1711C57.1415 11.3564 57.3681 11.4491 57.6357 11.4491Z" fill="#00AB69"/>
<path d="M61.5481 9.10164H62.0217V11.8403H61.5481V10.6975H60.1273V11.8403H59.6537V9.10164H60.1273V10.2445H61.5481V9.10164Z" fill="#00AB69"/>
<path d="M65.1002 11.3873H65.4811V12.5816H65.0075V11.8506H62.9483V12.5816H62.4747V11.3873H62.8042C62.9792 11.1505 63.0719 10.8107 63.0719 10.368V9.10164H65.1002V11.3873V11.3873ZM63.3602 11.3873H64.6368V9.54436H63.5558V10.368C63.5558 10.7798 63.4837 11.1196 63.3602 11.3873Z" fill="#00AB69"/>
</svg>
