<svg width="62" height="32" viewBox="0 0 62 32" fill="none" xmlns="http://www.w3.org/2000/svg">
<path fill-rule="evenodd" clip-rule="evenodd" d="M16 0C7.16344 0 0 7.16344 0 16C0 24.8366 7.16344 32 16 32H46C54.8366 32 62 24.8366 62 16C62 7.16344 54.8366 0 46 0H16ZM46.707 15.2868C46.89 15.4786 47 15.7334 47 16.0002C46.997 16.265 46.894 16.5248 46.707 16.7136L36.808 26.7047C36.418 27.0984 35.785 27.0984 35.394 26.7047C35.004 26.311 35.003 25.6715 35.394 25.2779L43.586 17.0094H16C15.448 17.0094 15 16.5577 15 16.0002C15 15.4426 15.448 14.991 16 14.991H43.587L35.394 6.72251C35.003 6.32883 35.003 5.68933 35.394 5.29564C35.784 4.90195 36.417 4.90095 36.808 5.29564L46.707 15.2868Z" fill="white"/>
<path fill-rule="evenodd" clip-rule="evenodd" d="M47 16.0002C47 15.7334 46.89 15.4786 46.707 15.2868L36.808 5.29564C36.417 4.90095 35.784 4.90195 35.394 5.29564C35.003 5.68933 35.003 6.32883 35.394 6.72251L43.587 14.991H16C15.448 14.991 15 15.4426 15 16.0002C15 16.5577 15.448 17.0094 16 17.0094H43.586L35.394 25.2779C35.003 25.6715 35.004 26.311 35.394 26.7047C35.785 27.0984 36.418 27.0984 36.808 26.7047L46.707 16.7136C46.894 16.5248 46.997 16.265 47 16.0002Z" fill="#0AA373"/>
</svg>
