<svg width="24" height="24" viewBox="0 0 24 24" fill="none" xmlns="http://www.w3.org/2000/svg">
<g clip-path="url(#clip0_316_29)">
<path d="M13.2438 16.5562C13.5035 16.8159 13.9027 16.8746 14.2261 16.701L17.7018 14.8352C17.9589 14.697 18.2695 14.7037 18.5205 14.8528L23.5915 17.862C23.9534 18.0767 24.099 18.5257 23.9297 18.9108C23.4963 19.8969 22.7076 21.7043 22.3942 22.5035C22.3284 22.6718 22.2302 22.8259 22.0937 22.944C18.714 25.8736 11.9899 22.3041 6.8431 17.1572C1.69548 12.0101 -1.87405 5.28602 1.05549 1.90636C1.17389 1.76983 1.32802 1.6717 1.49601 1.60583C2.29493 1.29251 4.10263 0.503722 5.08874 0.0703983C5.4738 -0.0989315 5.92285 0.0466655 6.13752 0.408524L9.14678 5.47962C9.29558 5.73054 9.30225 6.0412 9.16438 6.29827L7.29856 9.77339C7.12496 10.0969 7.18363 10.496 7.44335 10.7558L13.2438 16.5562Z" fill="#0AA373"/>
<path d="M23.9995 13.1997H21.5996C21.5996 7.24465 16.7549 2.39995 10.7998 2.39995V0C18.0781 0 23.9995 5.92147 23.9995 13.1997Z" fill="#0AA373"/>
<path d="M19.333 13.1997H16.933C16.933 9.81792 14.1819 7.06652 10.7998 7.06652V4.66657C15.505 4.66657 19.333 8.49449 19.333 13.1997Z" fill="#0AA373"/>
</g>
<defs>
<clipPath id="clip0_316_29">
<rect width="24" height="24" fill="white"/>
</clipPath>
</defs>
</svg>
