<svg width="24" height="24" viewBox="0 0 24 24" fill="none" xmlns="http://www.w3.org/2000/svg">
<g clip-path="url(#clip0_316_2)">
<path d="M12.3133 6.10352e-05C7.10347 6.10352e-05 2.88 4.22353 2.88 9.43339C2.88 11.7593 3.7256 13.8849 5.12107 15.5297L12.3133 24.0001L19.5053 15.5294C20.9008 13.8849 21.7464 11.759 21.7464 9.43313C21.7467 4.22353 17.5232 6.10352e-05 12.3133 6.10352e-05ZM12.3133 12.9881C10.1707 12.9881 8.43387 11.2513 8.43387 9.10859C8.43387 6.96593 10.1707 5.22913 12.3133 5.22913C14.456 5.22913 16.1928 6.96593 16.1928 9.10859C16.1928 11.2513 14.456 12.9881 12.3133 12.9881Z" fill="#0AA373"/>
</g>
<defs>
<clipPath id="clip0_316_2">
<rect width="24" height="24" fill="white"/>
</clipPath>
</defs>
</svg>
