<svg width="40" height="41" viewBox="0 0 40 41" fill="none" xmlns="http://www.w3.org/2000/svg">
<path d="M35.3521 32.2271L28.589 25.4629C30.2327 23.1765 31.1365 20.4443 31.1365 17.5682C31.1365 13.9455 29.7261 10.5385 27.1609 7.97556C24.6012 5.41368 21.192 4 17.5671 4C13.9433 4 10.5352 5.41036 7.97335 7.97556C5.41147 10.5363 4 13.9444 4 17.5682C4 21.192 5.41036 24.599 7.97335 27.1631C10.5352 29.725 13.9422 31.1387 17.5671 31.1387C20.4421 31.1387 23.1721 30.2394 25.4607 28.5912L32.2238 35.3554C32.6574 35.7879 33.2216 36.0036 33.7879 36.0036C34.3554 36.0036 34.9207 35.7879 35.3521 35.3554C36.216 34.4904 36.216 33.0911 35.3521 32.2271ZM11.1027 24.0338C9.37486 22.3059 8.42466 20.0084 8.42466 17.5671C8.42466 15.1258 9.37486 12.8305 11.1027 11.1027C12.8294 9.37486 15.1247 8.42356 17.5671 8.42356C20.0095 8.42356 22.3059 9.37486 24.0327 11.1027C25.7605 12.8305 26.7118 15.1269 26.7118 17.5682C26.7118 20.0095 25.7616 22.3059 24.0327 24.0349C22.3048 25.7627 20.0106 26.7118 17.5671 26.7118C15.1236 26.7118 12.8272 25.7605 11.1027 24.0338Z" fill="white"/>
</svg>
