<svg xmlns="http://www.w3.org/2000/svg" viewBox="0 0 203.35 228.47"><defs><style>.cls-1{isolation:isolate;}.cls-2,.cls-3,.cls-9{fill:#cecece;}.cls-3,.cls-9{mix-blend-mode:multiply;}.cls-4{fill:#f25b6c;}.cls-5{fill:#c14658;}.cls-6{fill:#1d1d1b;}.cls-7{fill:#3a3a3a;}.cls-8{fill:#2c4798;}.cls-9{opacity:0.4;}.cls-10{fill:#212121;}.cls-11{fill:#a0a0a0;}.cls-12{fill:#5f5e5e;}</style></defs><g class="cls-1"><g id="Layer_2" data-name="Layer 2"><g id="Слой_1" data-name="Слой 1"><path class="cls-2" d="M90,11.54a56.92,56.92,0,0,0,1.7-7.27C92,1.85,92.67-.57,90,.15s-5.33,5.57-5.09,8S88.56,14,88.56,14Z"/><path class="cls-3" d="M90,11.54a56.92,56.92,0,0,0,1.7-7.27C92,1.85,92.67-.57,90,.15s-5.33,5.57-5.09,8S88.56,14,88.56,14Z"/><path class="cls-4" d="M160,36.71c-8.14,2.91-16.85,9.48-26,12.53a2.23,2.23,0,0,1-.54.47,19,19,0,0,1-6,2.16A48,48,0,0,1,120.14,53a21.77,21.77,0,0,1-6.69-.3,16.22,16.22,0,0,0,10.29,7c14.46,3.29,25.67-8.54,41.65-7.87s28.09,10.18,28.09,10.18l9.87-15.73S182.73,28.58,160,36.71Z"/><path class="cls-5" d="M165.2,35.27A35.69,35.69,0,0,0,160,36.71c-8.14,2.91-16.85,9.48-26,12.53a2.23,2.23,0,0,1-.54.47,19,19,0,0,1-6,2.16A48,48,0,0,1,120.14,53a21.79,21.79,0,0,1-6.69-.3,16.22,16.22,0,0,0,10.29,7l.48.1,8.25-2.71s41.15-8.22,39.69-16.57C171.67,37.8,168.81,36.19,165.2,35.27Z"/><path class="cls-5" d="M120.54,181.84s-7.76-12.6-2.43-19.62,48.46-17.45,50.89-29.07c1.5-7.22-21.33-2.91-30.05,1.45s-27.62,19.14-27.86,29.07S120.54,181.84,120.54,181.84Z"/><path class="cls-6" d="M59.56,179.05c-.61,1.49-4.67,1.23-9.06-.58s-7.46-4.47-6.85-6,4.67-1.22,9.06.58S60.17,177.57,59.56,179.05Z"/><path class="cls-2" d="M96.81,120c4.24-2.8,16.5-6.93,24,3.65S96.15,186.24,68.9,180.48s-28.65-15.41-28.65-15.41,12.1,3.06,18.19-3.26C80.14,139.23,84,128.42,96.81,120Z"/><path class="cls-3" d="M96.81,120c4.24-2.8,16.5-6.93,24,3.65S96.15,186.24,68.9,180.48s-28.65-15.41-28.65-15.41,12.1,3.06,18.19-3.26C80.14,139.23,84,128.42,96.81,120Z"/><path class="cls-7" d="M43.89,167.3c0-.65.73-1.15,1.6-1.52a29.93,29.93,0,0,1-5.24-.71s.82,5.58,13.18,10.79C50.05,174.45,43.93,168.83,43.89,167.3Z"/><path class="cls-7" d="M53.55,175.91l.24.1Z"/><path class="cls-8" d="M100.11,157.59a103.05,103.05,0,0,0-19.68-21.14,56.89,56.89,0,0,0-16.64-9.26,34,34,0,0,0-14-1.89v-8.63H46.4v63.71h3.39V128.72A30.39,30.39,0,0,1,63,130.5c8.16,2.81,20.74,10.13,34.36,29.07,13.91,19.34,28.09,31.36,37.53,38,10.3,7.28,17.23,9.94,17.53,10.05l1.19-3.17C153.33,204.37,126.16,193.82,100.11,157.59Z"/><path class="cls-8" d="M38.64,111.1s2.43,7.27,9.45,9.93,13.77,4.28,13.43,1.78-19.9-15.56-21.27-14.6A4.62,4.62,0,0,0,38.64,111.1Z"/><path class="cls-2" d="M38.68,107.13s20.43,2.6,30.55-5.89,17.43-20,24.38-22.79,11.9-1.42,13.7,1.74-3.89,9.51-6.61,15.52S93.63,114.84,82.59,121,52,115.9,45,111.35C41.7,109.22,38.68,107.13,38.68,107.13Z"/><path class="cls-3" d="M38.68,107.13s20.43,2.6,30.55-5.89,17.43-20,24.38-22.79,11.9-1.42,13.7,1.74-3.89,9.51-6.61,15.52S93.63,114.84,82.59,121,52,115.9,45,111.35C41.7,109.22,38.68,107.13,38.68,107.13Z"/><path class="cls-7" d="M45.17,109.91a3.41,3.41,0,0,1-1.28-2.43c-3.14-.08-5.21-.35-5.21-.35s3,2.09,6.31,4.22c1.52,1,3.63,2.3,6.12,3.67A75.5,75.5,0,0,1,45.17,109.91Z"/><path class="cls-2" d="M34.53,14.69c16.62,7.09,61.66-13.21,65.9,0,16.23,50.63,48.46,81.15,68,93.83,3.61,2.34,5.36,6.61,3.26,10.37-15.11,27-57.17,46.47-72.92,37.51-33.32-19-22.53-70-22.53-84.54S63.49,60.5,50.76,53C31.13,41.34,34.53,14.69,34.53,14.69Z"/><path class="cls-9" d="M112.3,54.42a43.59,43.59,0,0,0,8.48,5.33l1.13.48a190.51,190.51,0,0,1-12.12-21.79L96.07,56.35l.12,7.8s7.39-4.16,10.54-7.07S110.36,53,112.3,54.42Z"/><path class="cls-9" d="M131.92,144.53a25.79,25.79,0,0,1-4.85.58h0c0-4.26-2.22-9.31-2.22-9.31l-7.61,8.58a50.28,50.28,0,0,1-27.47-15.11l0,0a1.82,1.82,0,0,1,.46-2.85,17.29,17.29,0,0,0,6.08-5.34c8.44-13.47,9-24.49,11.41-30.31s-.73-9.2-.73-9.2L82.16,112.34c-3.82-18.07-1.2-41-1.2-41L72.81,58.78s-11.39,0-27.14-13.08c-9.82-8.16-11.32-28.59-11.32-28.59h0c-.29,6.82.37,26.35,16.41,35.85C63.49,60.5,76.2,57.32,76.2,71.86S65.41,137.44,98.73,156.4c13.62,7.75,46.9-5.77,65.43-27C163.88,129.53,137,143.33,131.92,144.53Z"/><path class="cls-10" d="M34.85,26.89S35.25,21,37,21s8.24,2.42,5.81,0A37.21,37.21,0,0,1,39,15.91a19.06,19.06,0,0,1-4.47-1.22A49.88,49.88,0,0,0,34.85,26.89Z"/><path class="cls-10" d="M46.8,42.91c3.72,4.57,8,3.5,6.16-1.59C53.35,47.76,48.87,44.65,46.8,42.91Z"/><path class="cls-11" d="M65.71,24.43a.64.64,0,0,0-1.16.26c-.15,1.18.33,2.88,3.72,4.07,4.29,1.49,10-2.21,12.66-3.84.13-.09-.19-.15-.34-.09C73.57,27.85,68.54,28.5,65.71,24.43Z"/><path class="cls-10" d="M65.67,23.89a.64.64,0,0,0-1.16.26c-.15,1.18.34,2.88,3.73,4.07C72.52,29.71,78.4,26.58,81,25a.13.13,0,0,0-.12-.23C73.87,27.74,68.5,28,65.67,23.89Z"/><path class="cls-3" d="M97.54,11.92l-3.3,5.19s2.07,1.21,6,0c.32-.1.63-.21.93-.32-.24-.7-.57-1.7-.8-2.4A5.5,5.5,0,0,0,97.54,11.92Z"/><path class="cls-2" d="M94.13,13.52A71.65,71.65,0,0,1,96.76,4.4C98,1.57,98.7-1.57,101.2.89s2.45,9.49.68,12-7.64,4.19-7.64,4.19Z"/><path class="cls-4" d="M108,43.08S113.76,59,128.41,56.76s20.75-17.37,35.85-22.62,29.87-.84,29.87-.84L197.53,15s-25.7-8.93-43.88,7c-8.65,7.57-15.85,21.56-27.5,26.05s-15.73-8.38-15.73-8.38Z"/><path class="cls-5" d="M153.65,22c-8.65,7.57-15.85,21.56-27.5,26.05s-15.73-8.38-15.73-8.38l-2,2.75c2,2.89,7.73,9.75,15.44,9.59,9.77-.2,13.48-6.62,25.77-21.39s30.74-18.09,30.74-18.09h0C172.05,12.62,162.05,14.67,153.65,22Z"/><path class="cls-4" d="M107.94,34.31C97,46.71,89,58,67.12,59.35,68,65.17,71,69.42,76.2,71.86c15.61-.64,25.41-10.25,36.1-28.34C111.6,40.55,110.14,35.83,107.94,34.31Z"/><path class="cls-5" d="M73,58.7q-2.74.45-5.83.65C68,65.17,71,69.42,76.2,71.86a36.72,36.72,0,0,0,4.8-.52C74.76,67,73.78,62.66,73,58.7Z"/><path class="cls-9" d="M168.44,115.93l.48-7c-.18-.13-.35-.26-.53-.37q-2.17-1.41-4.53-3.12a8.36,8.36,0,0,0,.29,5A22.39,22.39,0,0,0,168.44,115.93Z"/><path class="cls-2" d="M166.33,112.56s-3.15-6.55,1-11.63,8.24-3.88,8,2.66c-.19,5.23-1.1,13.82-4.06,13.81S166.33,112.56,166.33,112.56Z"/><path class="cls-6" d="M48.09,228.47a48.09,48.09,0,1,1,48.1-48.09A48.15,48.15,0,0,1,48.09,228.47Zm0-91.08a43,43,0,1,0,43,43A43,43,0,0,0,48.09,137.39Z"/><path class="cls-6" d="M153,228.47a22.41,22.41,0,1,1,22.42-22.41A22.44,22.44,0,0,1,153,228.47Zm0-39.73a17.32,17.32,0,1,0,17.33,17.32A17.34,17.34,0,0,0,153,188.74Z"/><path class="cls-12" d="M57.54,180.38a9.45,9.45,0,1,1-9.45-9.44A9.45,9.45,0,0,1,57.54,180.38Z"/><path class="cls-12" d="M159.06,205.82a6.3,6.3,0,1,1-6.3-6.3A6.3,6.3,0,0,1,159.06,205.82Z"/><path class="cls-2" d="M43.25,114.74s20.59,0,29.56-9.69S87.59,83,94.13,79.37s11.63-2.91,13.81,0-2.67,9.93-4.61,16.23S98.73,115.46,88.56,123s-31-1.21-38.53-4.84C46.51,116.42,43.25,114.74,43.25,114.74Z"/><path class="cls-7" d="M50,116.67a3.4,3.4,0,0,1-1.57-2.25c-3.13.31-5.21.32-5.21.32s3.26,1.68,6.78,3.39c1.64.79,3.9,1.82,6.54,2.87A76.54,76.54,0,0,1,50,116.67Z"/><path class="cls-8" d="M76,194.92a.92.92,0,0,1-.36-.07L49,184.44a1,1,0,1,1,.71-1.81l26.65,10.42a1,1,0,0,1-.35,1.87Z"/><path class="cls-6" d="M88.07,195.16c0,1.61-3.85,2.91-8.6,2.91s-8.6-1.3-8.6-2.91,3.85-2.91,8.6-2.91S88.07,193.56,88.07,195.16Z"/><path class="cls-2" d="M97.76,129.27c3.26-3.91,13.81-11.39,24-3.39S116.19,193,88.44,195.26s-31.87-6.52-31.87-6.52,12.47-.54,16.48-8.36C87.34,152.53,87.93,141.07,97.76,129.27Z"/><path class="cls-7" d="M60.69,189.83c-.2-.61.37-1.31,1.1-1.92a29.27,29.27,0,0,1-5.22.83s2.39,5.11,15.72,6.54C68.66,194.9,61.18,191.28,60.69,189.83Z"/><path class="cls-7" d="M72.42,195.3l.26,0Z"/></g></g></g></svg>