<?xml version="1.0" encoding="utf-8"?>
<!-- Generator: Adobe Illustrator 24.0.1, SVG Export Plug-In . SVG Version: 6.00 Build 0)  -->
<svg version="1.1" id="Слой_1" xmlns="http://www.w3.org/2000/svg" xmlns:xlink="http://www.w3.org/1999/xlink" x="0px" y="0px"
	 viewBox="0 0 79.22 23.05" style="enable-background:new 0 0 79.22 23.05;" xml:space="preserve">
<style type="text/css">
	.st0{fill-rule:evenodd;clip-rule:evenodd;fill:#E60D2E;}
	.st1{fill:#00AB69;}
</style>
<g>
	<path class="st0" d="M9.46,5.36c1.34,3.49-0.88,5.71-3.1,7.97c-2.08,2.29-3.91,4.65-0.25,8.95c-1.37-3.49,0.88-5.71,3.1-7.97
		C11.29,12.02,13.13,9.66,9.46,5.36z"/>
	<path class="st0" d="M25.32,19.14l1.45-2.78l1.37,2.78H25.32z M29.13,14.7h-3.35l-3.91,7.12h2.04l0.63-1.2h4.37l0.63,1.2h3.45
		L29.13,14.7z"/>
	<polygon class="st0" points="22.96,14.7 14.32,14.7 14.32,16.25 17.07,16.25 17.07,21.82 20.21,21.82 20.21,16.25 22.96,16.25 	"/>
	<polygon class="st0" points="40.44,14.7 31.98,14.7 31.98,16.25 34.73,16.25 34.73,21.82 37.87,21.82 37.87,16.25 40.44,16.25 	"/>
	<polygon class="st1" points="62.54,14.7 62.54,21.82 65.68,21.82 65.68,19.21 69.1,19.21 69.1,17.66 65.68,17.66 65.68,16.25 
		72.45,16.25 72.45,21.82 75.58,21.82 75.58,16.25 78.4,16.25 78.4,14.7 	"/>
	<polygon class="st1" points="55.85,20.27 55.85,19.03 59.93,19.03 59.93,17.48 55.85,17.48 55.85,16.25 61.06,16.25 61.06,14.7 
		52.74,14.7 52.74,21.82 61.13,21.82 61.13,20.27 	"/>
	<polygon class="st1" points="48.9,14.7 48.9,18.26 43.93,14.7 41.5,14.7 41.5,21.82 43.61,21.82 43.61,17.91 48.76,21.82 
		51.05,21.82 51.05,14.7 	"/>
	<path class="st1" d="M6.11,0.92c1.37,3.49-0.85,5.71-3.1,7.97c-2.04,2.29-3.88,4.65-0.21,8.92c-1.37-3.45,0.88-5.71,3.1-7.93
		C7.98,7.58,9.81,5.18,6.11,0.92z"/>
	<g>
		<path class="st1" d="M16.12,10.1c0.32,0,0.6,0.11,0.82,0.33c0.22,0.22,0.34,0.49,0.34,0.8c0,0.32-0.11,0.59-0.33,0.81
			c-0.22,0.22-0.5,0.32-0.82,0.32h-1.4V8.63h2.24V9.1h-1.74v1H16.12z M16.12,11.9c0.18,0,0.34-0.06,0.47-0.19
			c0.13-0.13,0.19-0.29,0.19-0.48c0-0.19-0.06-0.35-0.19-0.47c-0.13-0.13-0.29-0.19-0.47-0.19h-0.91v1.34H16.12z"/>
		<path class="st1" d="M19.92,9.7v2.66h-0.46v-2.22H18.4v1.09c0,0.44-0.09,0.74-0.26,0.91c-0.18,0.17-0.42,0.24-0.74,0.22v-0.44
			c0.18,0.02,0.32-0.02,0.41-0.12c0.09-0.1,0.14-0.3,0.14-0.58V9.7H19.92z"/>
		<path class="st1" d="M22.82,9.7h0.46v2.66h-0.46V11.9c-0.23,0.35-0.57,0.53-1.01,0.53c-0.37,0-0.69-0.14-0.95-0.41
			c-0.26-0.27-0.39-0.6-0.39-0.99c0-0.39,0.13-0.72,0.39-0.99c0.26-0.27,0.58-0.41,0.95-0.41c0.44,0,0.78,0.18,1.01,0.53V9.7z
			 M21.87,11.98c0.27,0,0.5-0.09,0.68-0.27s0.27-0.41,0.27-0.68c0-0.27-0.09-0.5-0.27-0.68c-0.18-0.18-0.41-0.27-0.68-0.27
			c-0.27,0-0.49,0.09-0.67,0.27c-0.18,0.18-0.27,0.41-0.27,0.68c0,0.27,0.09,0.5,0.27,0.68C21.39,11.89,21.61,11.98,21.87,11.98z"/>
		<path class="st1" d="M25.74,9.7v0.45h-1.28v2.22h-0.46V9.7H25.74z"/>
		<path class="st1" d="M28.28,12.02c-0.27,0.27-0.61,0.4-1,0.4c-0.39,0-0.72-0.13-0.99-0.4c-0.27-0.27-0.41-0.6-0.41-1
			c0-0.39,0.14-0.73,0.41-1c0.27-0.27,0.6-0.4,0.99-0.4c0.39,0,0.72,0.13,1,0.4c0.27,0.27,0.41,0.6,0.41,1
			C28.69,11.42,28.55,11.75,28.28,12.02z M27.29,11.98c0.27,0,0.49-0.09,0.67-0.27c0.18-0.18,0.27-0.41,0.27-0.68
			c0-0.27-0.09-0.5-0.27-0.68c-0.18-0.18-0.4-0.27-0.67-0.27c-0.26,0-0.48,0.09-0.67,0.27c-0.18,0.18-0.27,0.41-0.27,0.68
			c0,0.27,0.09,0.5,0.27,0.68C26.8,11.89,27.02,11.98,27.29,11.98z"/>
		<path class="st1" d="M31.11,9.7v0.45h-0.91v2.22h-0.46v-2.22h-0.91V9.7H31.11z"/>
		<path class="st1" d="M33.29,10.99c0.27,0.11,0.41,0.32,0.41,0.62c0,0.22-0.07,0.4-0.22,0.54c-0.15,0.14-0.36,0.21-0.63,0.21h-1.33
			V9.7h1.22c0.27,0,0.47,0.07,0.62,0.2c0.15,0.13,0.22,0.31,0.22,0.52C33.58,10.68,33.48,10.87,33.29,10.99z M32.72,10.11h-0.75v0.7
			h0.75c0.27,0,0.4-0.12,0.4-0.36C33.13,10.23,32.99,10.11,32.72,10.11z M32.82,11.94c0.13,0,0.24-0.03,0.31-0.1
			c0.07-0.06,0.11-0.15,0.11-0.27c0-0.11-0.04-0.2-0.11-0.26c-0.07-0.06-0.18-0.09-0.31-0.09h-0.85v0.72H32.82z"/>
		<path class="st1" d="M36.45,12.02c-0.27,0.27-0.61,0.4-1,0.4c-0.39,0-0.72-0.13-0.99-0.4c-0.27-0.27-0.41-0.6-0.41-1
			c0-0.39,0.14-0.73,0.41-1c0.27-0.27,0.6-0.4,0.99-0.4c0.39,0,0.72,0.13,1,0.4c0.27,0.27,0.41,0.6,0.41,1
			C36.86,11.42,36.72,11.75,36.45,12.02z M35.45,11.98c0.27,0,0.49-0.09,0.67-0.27c0.18-0.18,0.27-0.41,0.27-0.68
			c0-0.27-0.09-0.5-0.27-0.68c-0.18-0.18-0.4-0.27-0.67-0.27c-0.26,0-0.48,0.09-0.67,0.27c-0.18,0.18-0.27,0.41-0.27,0.68
			c0,0.27,0.09,0.5,0.27,0.68C34.97,11.89,35.19,11.98,35.45,11.98z"/>
		<path class="st1" d="M38.88,9.63c0.37,0,0.69,0.14,0.95,0.41c0.26,0.27,0.39,0.6,0.39,0.99c0,0.39-0.13,0.72-0.39,0.99
			c-0.26,0.27-0.58,0.41-0.95,0.41c-0.44,0-0.78-0.18-1.01-0.53v1.52h-0.46V9.7h0.46v0.46C38.1,9.8,38.44,9.63,38.88,9.63z
			 M38.82,11.98c0.27,0,0.49-0.09,0.67-0.27c0.18-0.18,0.27-0.41,0.27-0.68c0-0.27-0.09-0.5-0.27-0.68
			c-0.18-0.18-0.4-0.27-0.67-0.27c-0.27,0-0.5,0.09-0.68,0.27c-0.18,0.18-0.27,0.41-0.27,0.68c0,0.27,0.09,0.5,0.27,0.68
			S38.55,11.98,38.82,11.98z"/>
		<path class="st1" d="M42.71,9.7h0.37v2.66h-0.46v-1.87l-1.48,1.87h-0.37V9.7h0.46v1.87L42.71,9.7z"/>
		<path class="st1" d="M45.77,9.7v0.45h-0.91v2.22H44.4v-2.22h-0.91V9.7H45.77z"/>
		<path class="st1" d="M46.39,11.24c0.05,0.24,0.16,0.42,0.33,0.55c0.17,0.13,0.38,0.2,0.64,0.2c0.35,0,0.61-0.13,0.77-0.39
			l0.39,0.22c-0.26,0.4-0.65,0.6-1.17,0.6c-0.42,0-0.77-0.13-1.03-0.4c-0.26-0.26-0.4-0.6-0.4-1c0-0.4,0.13-0.73,0.39-1
			c0.26-0.27,0.59-0.4,1.01-0.4c0.39,0,0.71,0.14,0.96,0.41c0.25,0.28,0.37,0.61,0.37,0.99c0,0.07-0.01,0.14-0.02,0.21H46.39z
			 M47.31,10.06c-0.25,0-0.45,0.07-0.62,0.21c-0.16,0.14-0.26,0.33-0.3,0.56h1.78c-0.04-0.25-0.14-0.44-0.3-0.57
			C47.71,10.13,47.53,10.06,47.31,10.06z"/>
		<path class="st1" d="M51.28,9.7v2.66h-0.46v-2.22h-1.05v1.09c0,0.44-0.09,0.74-0.26,0.91c-0.18,0.17-0.42,0.24-0.74,0.22v-0.44
			c0.18,0.02,0.32-0.02,0.41-0.12c0.09-0.1,0.14-0.3,0.14-0.58V9.7H51.28z"/>
		<path class="st1" d="M53.11,10.66c0.27,0,0.49,0.08,0.66,0.24c0.18,0.16,0.26,0.36,0.26,0.61c0,0.25-0.09,0.46-0.26,0.62
			s-0.4,0.24-0.66,0.24h-1.12V9.7h0.46v0.96H53.11z M53.11,11.93c0.13,0,0.24-0.04,0.33-0.11c0.09-0.08,0.14-0.18,0.14-0.31
			c0-0.13-0.05-0.23-0.14-0.31c-0.09-0.08-0.2-0.12-0.33-0.12h-0.66v0.85H53.11z"/>
		<path class="st1" d="M56.38,9.7h0.46v2.66h-0.46v-1.11H55v1.11h-0.46V9.7H55v1.11h1.38V9.7z"/>
		<path class="st1" d="M58.67,10.66c0.27,0,0.49,0.08,0.66,0.24c0.18,0.16,0.26,0.36,0.26,0.61c0,0.25-0.09,0.46-0.26,0.62
			s-0.4,0.24-0.66,0.24h-1.12V9.7h0.46v0.96H58.67z M58.67,11.93c0.13,0,0.24-0.04,0.33-0.11c0.09-0.08,0.14-0.18,0.14-0.31
			c0-0.13-0.05-0.23-0.14-0.31c-0.09-0.08-0.2-0.12-0.33-0.12h-0.66v0.85H58.67z M59.94,9.7h0.46v2.66h-0.46V9.7z"/>
		<path class="st1" d="M63.05,9.7h0.37v2.66h-0.46v-1.87l-1.48,1.87h-0.37V9.7h0.46v1.87L63.05,9.7z M61.55,9.3v-0.4h1.44v0.4H61.55
			z"/>
		<path class="st1" d="M68.13,10.1c0.25,0.26,0.37,0.57,0.37,0.93c0,0.37-0.12,0.68-0.37,0.93c-0.25,0.26-0.58,0.41-1,0.45v1.01
			h-0.46v-1.01c-0.42-0.05-0.75-0.2-1-0.45c-0.25-0.26-0.37-0.57-0.37-0.93c0-0.37,0.12-0.68,0.37-0.93c0.25-0.26,0.58-0.41,1-0.45
			V8.63h0.46v1.01C67.55,9.69,67.88,9.84,68.13,10.1z M65.76,11.03c0,0.24,0.08,0.45,0.24,0.62c0.16,0.17,0.38,0.28,0.67,0.31v-1.87
			c-0.28,0.04-0.51,0.14-0.67,0.31C65.84,10.57,65.76,10.78,65.76,11.03z M67.13,11.97c0.28-0.04,0.51-0.14,0.67-0.31
			c0.16-0.17,0.24-0.38,0.24-0.62c0-0.24-0.08-0.45-0.24-0.62c-0.16-0.17-0.38-0.28-0.67-0.31V11.97z"/>
		<path class="st1" d="M71.3,12.02c-0.27,0.27-0.61,0.4-1,0.4c-0.39,0-0.72-0.13-0.99-0.4c-0.27-0.27-0.41-0.6-0.41-1
			c0-0.39,0.14-0.73,0.41-1c0.27-0.27,0.6-0.4,0.99-0.4c0.39,0,0.72,0.13,1,0.4c0.27,0.27,0.41,0.6,0.41,1
			C71.71,11.42,71.57,11.75,71.3,12.02z M70.3,11.98c0.27,0,0.49-0.09,0.67-0.27c0.18-0.18,0.27-0.41,0.27-0.68
			c0-0.27-0.09-0.5-0.27-0.68c-0.18-0.18-0.4-0.27-0.67-0.27c-0.26,0-0.48,0.09-0.67,0.27c-0.18,0.18-0.27,0.41-0.27,0.68
			c0,0.27,0.09,0.5,0.27,0.68C69.82,11.89,70.04,11.98,70.3,11.98z"/>
		<path class="st1" d="M74.1,9.7h0.46v2.66H74.1v-1.11h-1.38v1.11h-0.46V9.7h0.46v1.11h1.38V9.7z"/>
		<path class="st1" d="M77.55,11.92h0.37v1.16h-0.46v-0.71h-2v0.71h-0.46v-1.16h0.32c0.17-0.23,0.26-0.56,0.26-0.99V9.7h1.97V11.92z
			 M75.86,11.92h1.24v-1.79h-1.05v0.8C76.05,11.33,75.98,11.66,75.86,11.92z"/>
	</g>
</g>
</svg>
