<svg width="24" height="24" viewBox="0 0 24 24" fill="none" xmlns="http://www.w3.org/2000/svg">
<g clip-path="url(#clip0_316_6)">
<path fill-rule="evenodd" clip-rule="evenodd" d="M1.12051 10.3305L22.3798 2.13314C23.3507 1.69234 24.2878 2.36648 23.9171 3.85288L20.2966 20.9138C20.0438 22.1258 19.3113 22.4159 18.2963 21.8559L12.7814 17.7812L10.1304 20.3588C10.1221 20.3669 10.1138 20.375 10.1055 20.383C9.80898 20.6718 9.56373 20.9106 9.02694 20.9106C8.46667 20.9106 8.41992 20.7448 8.30738 20.3457C8.27626 20.2353 8.24011 20.1071 8.18667 19.9596L6.31066 13.7855L0.855973 12.0828C-0.321898 11.7223 -0.330698 10.9126 1.12051 10.3305ZM7.252 13.3481L9.05121 19.2692L10.867 15.2087L21.1014 5.13209L7.252 13.3481Z" fill="#0AA373"/>
</g>
<defs>
<clipPath id="clip0_316_6">
<rect width="24" height="24" fill="white"/>
</clipPath>
</defs>
</svg>
