<svg width="24" height="24" viewBox="0 0 24 24" fill="none" xmlns="http://www.w3.org/2000/svg">
<g clip-path="url(#clip0_316_11)">
<path fill-rule="evenodd" clip-rule="evenodd" d="M23.4494 5.96507C23.6164 5.4088 23.4494 5 22.6556 5H20.0299C19.3622 5 19.0545 5.35307 18.8878 5.74267C18.8878 5.74267 17.5523 8.99708 15.6609 11.1112C15.0491 11.7232 14.771 11.9182 14.4369 11.9182C14.2702 11.9182 14.0286 11.7232 14.0286 11.1672V5.96507C14.0286 5.2976 13.8347 5 13.2785 5H9.15204C8.73497 5 8.48377 5.30987 8.48377 5.60374C8.48377 6.23654 9.42964 6.38267 9.52724 8.16295V12.0294C9.52724 12.8771 9.37417 13.0312 9.0403 13.0312C8.15043 13.0312 5.98509 9.76189 4.70082 6.02107C4.44908 5.29387 4.19682 5.00027 3.52588 5.00027H0.90027C0.149867 5 0 5.35307 0 5.7424C0 6.43787 0.88987 9.88722 4.14455 14.4491C6.31416 17.5643 9.37097 19.2534 12.1528 19.2534C13.8217 19.2534 14.0283 18.8782 14.0283 18.2321V15.8776C14.0283 15.1272 14.1865 14.9776 14.715 14.9776C15.1043 14.9776 15.7718 15.172 17.3297 16.6742C19.1099 18.4545 19.4033 19.2531 20.4049 19.2531H23.0305C23.7804 19.2531 24.1556 18.8779 23.9393 18.1379C23.7022 17.4 22.8524 16.3296 21.7246 15.0611C21.1126 14.3379 20.1945 13.559 19.9163 13.1694C19.5267 12.6688 19.6382 12.4464 19.9163 12.0011C19.9166 12.0014 23.1158 7.49494 23.4494 5.96507Z" fill="#0AA373"/>
</g>
<defs>
<clipPath id="clip0_316_11">
<rect width="24" height="24" fill="white"/>
</clipPath>
</defs>
</svg>
