<svg width="512" height="512" viewBox="0 0 512 512" fill="none" xmlns="http://www.w3.org/2000/svg">
<g clip-path="url(#clip0_316_15)">
<path d="M334.541 499.424C368.516 488.441 399.82 470.479 426.448 446.691C453.075 422.903 474.437 393.813 489.166 361.286H407.86C393.626 420.781 367.617 469.421 334.541 499.424Z" fill="#0AA373"/>
<path d="M276.481 361.286V487.75C314.778 474.746 347.751 426.31 365.261 361.286H276.481Z" fill="#0AA373"/>
<path d="M235.521 487.75V361.286H146.638C164.148 426.31 197.121 474.746 235.521 487.75Z" fill="#0AA373"/>
<path d="M104.141 361.286H22.8359C37.5548 393.837 58.9264 422.945 85.575 446.736C112.224 470.527 143.559 488.475 177.563 499.424C144.283 469.523 118.273 420.883 104.141 361.286Z" fill="#0AA373"/>
<path d="M503.604 190.688H415.335C418.319 212.234 419.824 233.96 419.841 255.712C419.858 277.326 418.387 298.915 415.437 320.326H503.706C514.799 277.821 514.764 233.176 503.604 190.688Z" fill="#0AA373"/>
<path d="M378.881 255.712C378.852 233.942 377.175 212.205 373.863 190.688H276.481V320.326H373.863C377.175 298.947 378.852 277.346 378.881 255.712Z" fill="#0AA373"/>
<path d="M133.121 255.712C133.117 277.344 134.76 298.944 138.036 320.326H235.521V190.688H138.036C134.76 212.208 133.117 233.944 133.121 255.712Z" fill="#0AA373"/>
<path d="M92.1607 255.712C92.1439 233.962 93.6151 212.237 96.5639 190.688H8.39748C-2.76427 233.176 -2.79954 277.821 8.29508 320.326H96.4615C93.5984 298.907 92.1616 277.322 92.1607 255.712Z" fill="#0AA373"/>
<path d="M488.961 149.728C474.231 117.284 452.887 88.2736 426.296 64.5565C399.705 40.8395 368.452 22.9383 334.541 12C367.617 41.9008 393.524 90.4384 407.757 149.728H488.961Z" fill="#0AA373"/>
<path d="M276.481 23.6736V149.728H365.159C347.649 84.9088 314.778 36.576 276.481 23.6736Z" fill="#0AA373"/>
<path d="M146.741 149.728H235.521V23.6736C197.121 36.576 164.25 84.9088 146.741 149.728Z" fill="#0AA373"/>
<path d="M177.358 12C143.469 22.9561 112.239 40.8648 85.6666 64.5807C59.0942 88.2965 37.7641 117.297 23.0407 149.728H104.141C118.375 90.4384 144.283 41.9008 177.358 12Z" fill="#0AA373"/>
</g>
<defs>
<clipPath id="clip0_316_15">
<rect width="512" height="512" fill="white"/>
</clipPath>
</defs>
</svg>
